<svg width="622" height="307" viewBox="0 0 622 307" fill="none" xmlns="http://www.w3.org/2000/svg">
<path d="M200.346 27L195.63 14.04H198.15L201.282 22.59L204.414 14.04H206.736L209.868 22.59L212.982 14.04H215.52L210.804 27H208.932L205.566 17.82L202.218 27H200.346ZM216.487 27V16.542C216.487 16.086 216.601 15.672 216.829 15.3C217.057 14.916 217.357 14.61 217.729 14.382C218.113 14.154 218.533 14.04 218.989 14.04H226.927C227.383 14.04 227.803 14.154 228.187 14.382C228.571 14.61 228.877 14.916 229.105 15.3C229.333 15.672 229.447 16.086 229.447 16.542V27H227.053V22.644H218.863V27H216.487ZM218.863 20.268H227.053V16.65C227.053 16.59 227.029 16.542 226.981 16.506C226.933 16.458 226.879 16.434 226.819 16.434H219.079C219.019 16.434 218.965 16.458 218.917 16.506C218.881 16.542 218.863 16.59 218.863 16.65V20.268ZM236.142 27V16.434H230.85V14.04H243.81V16.434H238.536V27H236.142ZM247.658 27C247.202 27 246.782 26.886 246.398 26.658C246.026 26.43 245.726 26.13 245.498 25.758C245.27 25.374 245.156 24.954 245.156 24.498V16.542C245.156 16.086 245.27 15.672 245.498 15.3C245.726 14.916 246.026 14.61 246.398 14.382C246.782 14.154 247.202 14.04 247.658 14.04H258.08V16.434H248.162C247.97 16.434 247.814 16.488 247.694 16.596C247.586 16.704 247.532 16.86 247.532 17.064V23.976C247.532 24.168 247.586 24.324 247.694 24.444C247.814 24.552 247.97 24.606 248.162 24.606H258.08V27H247.658ZM259.975 27V14.04H262.351V19.314H270.847V14.04H273.223V27H270.847V21.726H262.351V27H259.975ZM285.414 27V16.434H280.122V14.04H293.082V16.434H287.808V27H285.414ZM304.76 27L300.854 22.338H303.968L307.352 26.334V27H304.76ZM294.428 27V14.058H304.868C305.324 14.058 305.744 14.172 306.128 14.4C306.512 14.628 306.818 14.934 307.046 15.318C307.274 15.69 307.388 16.104 307.388 16.56V20.052C307.388 20.508 307.274 20.928 307.046 21.312C306.818 21.696 306.512 22.002 306.128 22.23C305.744 22.446 305.324 22.554 304.868 22.554L296.804 22.572V27H294.428ZM297.02 20.16H304.76C304.82 20.16 304.874 20.142 304.922 20.106C304.97 20.07 304.994 20.022 304.994 19.962V16.65C304.994 16.59 304.97 16.542 304.922 16.506C304.874 16.458 304.82 16.434 304.76 16.434H297.02C296.96 16.434 296.906 16.458 296.858 16.506C296.822 16.542 296.804 16.59 296.804 16.65V19.962C296.804 20.022 296.822 20.07 296.858 20.106C296.906 20.142 296.96 20.16 297.02 20.16ZM309.317 27V16.542C309.317 16.086 309.431 15.672 309.659 15.3C309.887 14.916 310.187 14.61 310.559 14.382C310.943 14.154 311.363 14.04 311.819 14.04H319.757C320.213 14.04 320.633 14.154 321.017 14.382C321.401 14.61 321.707 14.916 321.935 15.3C322.163 15.672 322.277 16.086 322.277 16.542V27H319.883V22.644H311.693V27H309.317ZM311.693 20.268H319.883V16.65C319.883 16.59 319.859 16.542 319.811 16.506C319.763 16.458 319.709 16.434 319.649 16.434H311.909C311.849 16.434 311.795 16.458 311.747 16.506C311.711 16.542 311.693 16.59 311.693 16.65V20.268ZM324.076 27V14.04H326.434V27H324.076ZM328.196 27V14.022H330.572V24.606H341.156V27H328.196ZM342.241 27V14.04H354.175V16.434H344.635V19.314H352.303V21.726H344.635V24.606H354.175V27H342.241ZM366.319 27L362.413 22.338H365.527L368.911 26.334V27H366.319ZM355.987 27V14.058H366.427C366.883 14.058 367.303 14.172 367.687 14.4C368.071 14.628 368.377 14.934 368.605 15.318C368.833 15.69 368.947 16.104 368.947 16.56V20.052C368.947 20.508 368.833 20.928 368.605 21.312C368.377 21.696 368.071 22.002 367.687 22.23C367.303 22.446 366.883 22.554 366.427 22.554L358.363 22.572V27H355.987ZM358.579 20.16H366.319C366.379 20.16 366.433 20.142 366.481 20.106C366.529 20.07 366.553 20.022 366.553 19.962V16.65C366.553 16.59 366.529 16.542 366.481 16.506C366.433 16.458 366.379 16.434 366.319 16.434H358.579C358.519 16.434 358.465 16.458 358.417 16.506C358.381 16.542 358.363 16.59 358.363 16.65V19.962C358.363 20.022 358.381 20.07 358.417 20.106C358.465 20.142 358.519 20.16 358.579 20.16Z" fill="#FFCA62"/>
<path d="M404.25 14.55V25.45C404.25 26.075 404.935 26.4575 405.467 26.1325L413.615 21.1525C413.813 21.032 413.976 20.8627 414.089 20.6608C414.202 20.459 414.262 20.2315 414.262 20C414.262 19.7685 414.202 19.541 414.089 19.3392C413.976 19.1373 413.813 18.968 413.615 18.8475L405.465 13.87C405.344 13.7964 405.205 13.7564 405.063 13.7541C404.922 13.7517 404.782 13.787 404.658 13.8565C404.535 13.9259 404.432 14.0269 404.36 14.1492C404.288 14.2715 404.25 14.4107 404.25 14.5525V14.55ZM399.25 7.5C397.592 7.5 396.003 8.15848 394.831 9.33058C393.658 10.5027 393 12.0924 393 13.75V26.25C393 27.9076 393.658 29.4973 394.831 30.6694C396.003 31.8415 397.592 32.5 399.25 32.5H416.75C418.408 32.5 419.997 31.8415 421.169 30.6694C422.342 29.4973 423 27.9076 423 26.25V13.75C423 12.0924 422.342 10.5027 421.169 9.33058C419.997 8.15848 418.408 7.5 416.75 7.5H399.25ZM395.5 13.75C395.5 12.7554 395.895 11.8016 396.598 11.0983C397.302 10.3951 398.255 10 399.25 10H416.75C417.745 10 418.698 10.3951 419.402 11.0983C420.105 11.8016 420.5 12.7554 420.5 13.75V26.25C420.5 27.2446 420.105 28.1984 419.402 28.9017C418.698 29.6049 417.745 30 416.75 30H399.25C398.255 30 397.302 29.6049 396.598 28.9017C395.895 28.1984 395.5 27.2446 395.5 26.25V13.75Z" fill="#FFCA62"/>
<rect x="0.5" y="129.5" width="419" height="59" stroke="#FFC961"/>
<rect x="420" y="129" width="202" height="60" fill="#FFC961"/>
<path d="M470.072 165C469.667 165 469.293 164.899 468.952 164.696C468.621 164.493 468.355 164.227 468.152 163.896C467.949 163.555 467.848 163.181 467.848 162.776V161.896H469.96V162.68C469.96 162.733 469.976 162.781 470.008 162.824C470.051 162.856 470.099 162.872 470.152 162.872H477.048C477.101 162.872 477.144 162.856 477.176 162.824C477.219 162.781 477.24 162.733 477.24 162.68V160.488C477.24 160.435 477.219 160.392 477.176 160.36C477.144 160.328 477.101 160.312 477.048 160.312H470.072C469.667 160.312 469.293 160.211 468.952 160.008C468.621 159.805 468.355 159.539 468.152 159.208C467.949 158.867 467.848 158.488 467.848 158.072V155.704C467.848 155.299 467.949 154.931 468.152 154.6C468.355 154.259 468.621 153.987 468.952 153.784C469.293 153.581 469.667 153.48 470.072 153.48H477.144C477.549 153.48 477.917 153.581 478.248 153.784C478.589 153.987 478.861 154.259 479.064 154.6C479.267 154.931 479.368 155.299 479.368 155.704V156.584H477.24V155.8C477.24 155.747 477.219 155.704 477.176 155.672C477.144 155.629 477.101 155.608 477.048 155.608H470.152C470.099 155.608 470.051 155.629 470.008 155.672C469.976 155.704 469.96 155.747 469.96 155.8V157.992C469.96 158.045 469.976 158.088 470.008 158.12C470.051 158.152 470.099 158.168 470.152 158.168H477.144C477.549 158.168 477.917 158.269 478.248 158.472C478.589 158.675 478.861 158.947 479.064 159.288C479.267 159.619 479.368 159.992 479.368 160.408V162.776C479.368 163.181 479.267 163.555 479.064 163.896C478.861 164.227 478.589 164.493 478.248 164.696C477.917 164.899 477.549 165 477.144 165H470.072ZM483.307 165C482.901 165 482.528 164.899 482.187 164.696C481.856 164.493 481.589 164.227 481.387 163.896C481.184 163.555 481.083 163.181 481.083 162.776V153.48H483.195V162.68C483.195 162.733 483.211 162.781 483.243 162.824C483.285 162.856 483.333 162.872 483.387 162.872H490.267C490.32 162.872 490.368 162.856 490.411 162.824C490.453 162.781 490.475 162.733 490.475 162.68V153.48H492.603V162.776C492.603 163.181 492.501 163.555 492.299 163.896C492.096 164.227 491.824 164.493 491.483 164.696C491.152 164.899 490.784 165 490.379 165H483.307ZM494.413 165V153.48H503.245C503.65 153.48 504.018 153.581 504.349 153.784C504.69 153.987 504.962 154.259 505.165 154.6C505.367 154.931 505.469 155.299 505.469 155.704V157.96C505.469 158.099 505.458 158.232 505.437 158.36C505.415 158.488 505.378 158.611 505.325 158.728C505.506 158.973 505.65 159.229 505.757 159.496C505.874 159.763 505.933 160.029 505.933 160.296V162.776C505.933 163.181 505.831 163.555 505.629 163.896C505.426 164.227 505.154 164.493 504.813 164.696C504.471 164.899 504.098 165 503.693 165H494.413ZM496.717 162.872H503.597C503.65 162.872 503.698 162.856 503.741 162.824C503.783 162.781 503.805 162.733 503.805 162.68V160.392C503.805 160.339 503.783 160.296 503.741 160.264C503.698 160.221 503.65 160.2 503.597 160.2H496.717C496.663 160.2 496.615 160.221 496.573 160.264C496.541 160.296 496.525 160.339 496.525 160.392V162.68C496.525 162.733 496.541 162.781 496.573 162.824C496.615 162.856 496.663 162.872 496.717 162.872ZM496.717 158.072H503.149C503.202 158.072 503.245 158.056 503.277 158.024C503.309 157.981 503.325 157.933 503.325 157.88V155.8C503.325 155.747 503.309 155.704 503.277 155.672C503.245 155.629 503.202 155.608 503.149 155.608H496.717C496.663 155.608 496.615 155.629 496.573 155.672C496.541 155.704 496.525 155.747 496.525 155.8V157.88C496.525 157.933 496.541 157.981 496.573 158.024C496.615 158.056 496.663 158.072 496.717 158.072ZM509.853 165C509.448 165 509.075 164.899 508.733 164.696C508.403 164.493 508.136 164.227 507.933 163.896C507.731 163.555 507.629 163.181 507.629 162.776V161.896H509.741V162.68C509.741 162.733 509.757 162.781 509.789 162.824C509.832 162.856 509.88 162.872 509.933 162.872H516.829C516.883 162.872 516.925 162.856 516.957 162.824C517 162.781 517.021 162.733 517.021 162.68V160.488C517.021 160.435 517 160.392 516.957 160.36C516.925 160.328 516.883 160.312 516.829 160.312H509.853C509.448 160.312 509.075 160.211 508.733 160.008C508.403 159.805 508.136 159.539 507.933 159.208C507.731 158.867 507.629 158.488 507.629 158.072V155.704C507.629 155.299 507.731 154.931 507.933 154.6C508.136 154.259 508.403 153.987 508.733 153.784C509.075 153.581 509.448 153.48 509.853 153.48H516.925C517.331 153.48 517.699 153.581 518.029 153.784C518.371 153.987 518.643 154.259 518.845 154.6C519.048 154.931 519.149 155.299 519.149 155.704V156.584H517.021V155.8C517.021 155.747 517 155.704 516.957 155.672C516.925 155.629 516.883 155.608 516.829 155.608H509.933C509.88 155.608 509.832 155.629 509.789 155.672C509.757 155.704 509.741 155.747 509.741 155.8V157.992C509.741 158.045 509.757 158.088 509.789 158.12C509.832 158.152 509.88 158.168 509.933 158.168H516.925C517.331 158.168 517.699 158.269 518.029 158.472C518.371 158.675 518.643 158.947 518.845 159.288C519.048 159.619 519.149 159.992 519.149 160.408V162.776C519.149 163.181 519.048 163.555 518.845 163.896C518.643 164.227 518.371 164.493 518.029 164.696C517.699 164.899 517.331 165 516.925 165H509.853ZM523.12 165C522.715 165 522.341 164.899 522 164.696C521.669 164.493 521.403 164.227 521.2 163.896C520.997 163.555 520.896 163.181 520.896 162.776V155.704C520.896 155.299 520.997 154.931 521.2 154.6C521.403 154.259 521.669 153.987 522 153.784C522.341 153.581 522.715 153.48 523.12 153.48H532.384V155.608H523.568C523.397 155.608 523.259 155.656 523.152 155.752C523.056 155.848 523.008 155.987 523.008 156.168V162.312C523.008 162.483 523.056 162.621 523.152 162.728C523.259 162.824 523.397 162.872 523.568 162.872H532.384V165H523.12ZM543.236 165L539.764 160.856H542.532L545.54 164.408V165H543.236ZM534.052 165V153.496H543.332C543.738 153.496 544.111 153.597 544.452 153.8C544.794 154.003 545.066 154.275 545.268 154.616C545.471 154.947 545.572 155.315 545.572 155.72V158.824C545.572 159.229 545.471 159.603 545.268 159.944C545.066 160.285 544.794 160.557 544.452 160.76C544.111 160.952 543.738 161.048 543.332 161.048L536.164 161.064V165H534.052ZM536.356 158.92H543.236C543.29 158.92 543.338 158.904 543.38 158.872C543.423 158.84 543.444 158.797 543.444 158.744V155.8C543.444 155.747 543.423 155.704 543.38 155.672C543.338 155.629 543.29 155.608 543.236 155.608H536.356C536.303 155.608 536.255 155.629 536.212 155.672C536.18 155.704 536.164 155.747 536.164 155.8V158.744C536.164 158.797 536.18 158.84 536.212 158.872C536.255 158.904 536.303 158.92 536.356 158.92ZM547.031 165V153.48H549.127V165H547.031ZM550.725 165V153.48H559.557C559.963 153.48 560.331 153.581 560.661 153.784C561.003 153.987 561.275 154.259 561.477 154.6C561.68 154.931 561.781 155.299 561.781 155.704V157.96C561.781 158.099 561.771 158.232 561.749 158.36C561.728 158.488 561.691 158.611 561.637 158.728C561.819 158.973 561.963 159.229 562.069 159.496C562.187 159.763 562.245 160.029 562.245 160.296V162.776C562.245 163.181 562.144 163.555 561.941 163.896C561.739 164.227 561.467 164.493 561.125 164.696C560.784 164.899 560.411 165 560.005 165H550.725ZM553.029 162.872H559.909C559.963 162.872 560.011 162.856 560.053 162.824C560.096 162.781 560.117 162.733 560.117 162.68V160.392C560.117 160.339 560.096 160.296 560.053 160.264C560.011 160.221 559.963 160.2 559.909 160.2H553.029C552.976 160.2 552.928 160.221 552.885 160.264C552.853 160.296 552.837 160.339 552.837 160.392V162.68C552.837 162.733 552.853 162.781 552.885 162.824C552.928 162.856 552.976 162.872 553.029 162.872ZM553.029 158.072H559.461C559.515 158.072 559.557 158.056 559.589 158.024C559.621 157.981 559.637 157.933 559.637 157.88V155.8C559.637 155.747 559.621 155.704 559.589 155.672C559.557 155.629 559.515 155.608 559.461 155.608H553.029C552.976 155.608 552.928 155.629 552.885 155.672C552.853 155.704 552.837 155.747 552.837 155.8V157.88C552.837 157.933 552.853 157.981 552.885 158.024C552.928 158.056 552.976 158.072 553.029 158.072ZM564.022 165V153.48H574.63V155.608H566.15V158.168H572.966V160.312H566.15V162.872H574.63V165H564.022Z" fill="black"/>
<g clip-path="url(#clip0_154_2820)">
<path fill-rule="evenodd" clip-rule="evenodd" d="M151.719 280.78V293.575C151.719 293.785 151.859 293.925 152.068 293.925H156.822C157.031 293.925 157.171 293.785 157.171 293.575V280.57H160.596C160.736 280.57 160.946 280.43 160.946 280.29L161.295 276.375C161.295 276.165 161.156 276.025 160.946 276.025H157.171V273.228C157.171 272.599 157.73 272.04 158.359 272.04H161.016C161.225 272.04 161.365 271.9 161.365 271.69V267.774C161.365 267.565 161.225 267.425 161.016 267.425H156.542C153.886 267.425 151.789 269.592 151.789 272.179V275.955H149.412C149.202 275.955 149.062 276.095 149.062 276.305V280.22C149.062 280.43 149.202 280.57 149.412 280.57H151.789V280.78H151.719Z" fill="#FFEAC1"/>
<path d="M155.213 254.49C140.744 254.49 129 266.236 129 280.71C129 295.183 140.744 306.93 155.213 306.93C169.683 306.93 181.426 295.183 181.426 280.71C181.356 266.236 169.613 254.49 155.213 254.49ZM178.001 280.71C178.001 293.296 167.726 303.574 155.143 303.574C142.561 303.574 132.285 293.296 132.285 280.71C132.285 268.124 142.561 257.846 155.143 257.846C167.795 257.846 178.001 268.124 178.001 280.71Z" fill="#FFEAC1"/>
<path d="M376.59 287.073C376.59 286.933 376.59 286.793 376.59 286.653C376.73 286.443 376.939 286.303 377.219 286.233C379.386 285.814 380.784 284.416 381.902 282.668C382.811 281.129 382.671 280.78 380.994 280.22C380.924 280.22 380.784 280.15 380.714 280.15C380.365 280.011 380.015 279.871 379.666 279.591C378.897 278.962 379.386 277.983 380.225 277.773C380.854 277.633 381.413 278.053 382.042 278.123C382.462 278.193 382.601 278.053 382.601 277.563C382.462 276.375 382.462 275.256 382.532 274.067C382.601 271.83 383.72 270.152 385.537 269.103C388.194 267.495 391.06 267.495 393.716 269.103C395.393 270.082 396.512 271.62 396.722 273.578C396.861 274.906 396.791 276.165 396.722 277.493C396.652 278.053 396.791 278.193 397.351 278.053C398.05 277.913 398.609 277.563 399.378 277.843C399.797 277.983 400.077 278.402 400.077 278.822C400.077 279.102 399.867 279.381 399.657 279.591C399.308 279.871 398.889 280.08 398.469 280.22C398.12 280.36 397.84 280.43 397.49 280.57C396.861 280.85 396.652 281.269 397.001 281.898C398.05 284.066 399.518 285.744 401.964 286.303C402.244 286.373 402.523 286.513 402.663 286.723C402.663 286.863 402.663 287.003 402.663 287.142C402.454 287.632 402.034 287.912 401.545 288.051C401.055 288.261 400.566 288.401 400.077 288.471C399.378 288.541 399.028 288.821 398.889 289.59C398.819 290.289 398.609 290.359 397.84 290.359C397.7 290.359 397.49 290.289 397.351 290.289C395.953 290.009 394.625 290.149 393.506 291.128C393.296 291.338 393.017 291.478 392.807 291.617C390.85 292.876 388.823 293.016 386.795 291.827C386.236 291.478 385.677 291.128 385.188 290.778C384.768 290.499 384.279 290.289 383.72 290.219C382.881 290.079 382.042 290.289 381.203 290.359C380.784 290.429 380.365 290.289 380.365 289.869C380.295 288.821 379.666 288.541 378.757 288.471C378.337 288.401 377.918 288.261 377.568 288.121C377.149 287.772 376.8 287.562 376.59 287.073Z" fill="#FFEAC1"/>
<path d="M389.662 254C375.193 254 363.449 265.747 363.449 280.22C363.449 294.694 375.193 306.441 389.662 306.441C404.132 306.441 415.876 294.694 415.876 280.22C415.876 265.747 404.132 254 389.662 254ZM389.662 303.015C377.08 303.015 366.805 292.736 366.805 280.15C366.805 267.565 377.08 257.286 389.662 257.286C402.245 257.286 412.52 267.565 412.52 280.15C412.52 292.736 402.245 303.015 389.662 303.015Z" fill="#FFEAC1"/>
<path d="M246.645 272.319C245.806 272.739 244.828 272.948 243.919 273.088C244.338 273.018 244.967 272.249 245.247 271.9C245.666 271.41 245.946 270.851 246.156 270.222C246.156 270.152 246.226 270.082 246.156 270.082C246.086 270.082 246.086 270.082 246.016 270.082C244.967 270.641 243.919 271.061 242.8 271.34C242.731 271.34 242.661 271.34 242.591 271.27C242.521 271.131 242.381 271.061 242.311 270.991C241.822 270.571 241.333 270.291 240.773 270.012C240.004 269.732 239.166 269.592 238.397 269.592C237.628 269.662 236.789 269.872 236.09 270.222C235.391 270.571 234.762 271.131 234.272 271.69C233.783 272.319 233.364 273.088 233.154 273.857C232.944 274.627 233.014 275.396 233.084 276.165C233.084 276.305 233.084 276.305 232.944 276.305C228.471 275.675 224.836 274.067 221.83 270.641C221.69 270.501 221.62 270.501 221.55 270.641C220.222 272.599 220.851 275.745 222.529 277.284C222.739 277.493 222.948 277.703 223.228 277.913C223.158 277.913 222.04 277.843 221.061 277.284C220.921 277.214 220.851 277.284 220.851 277.423C220.851 277.633 220.851 277.843 220.921 278.053C221.201 280.01 222.529 281.898 224.416 282.598C224.626 282.667 224.906 282.807 225.115 282.807C224.696 282.877 224.277 282.947 223.018 282.877C222.878 282.877 222.809 282.947 222.878 283.087C223.787 285.604 225.814 286.373 227.282 286.793C227.492 286.793 227.702 286.793 227.911 286.863C227.911 286.863 227.911 286.863 227.842 286.933C227.352 287.702 225.605 288.261 224.836 288.541C223.368 289.03 221.76 289.31 220.222 289.1C219.943 289.03 219.943 289.1 219.873 289.1C219.803 289.17 219.873 289.17 219.943 289.24C220.222 289.45 220.572 289.66 220.921 289.799C221.9 290.289 222.948 290.708 223.997 291.058C229.519 292.596 235.671 291.478 239.865 287.352C243.08 284.136 244.268 279.661 244.268 275.256C244.268 275.116 244.478 274.976 244.618 274.906C245.457 274.277 246.226 273.508 246.855 272.669C246.995 272.459 247.064 272.319 247.064 272.249C246.785 272.249 246.715 272.319 246.645 272.319Z" fill="#FFEAC1"/>
<path d="M233.295 254.559C218.826 254.559 207.082 266.306 207.082 280.78C207.082 295.253 218.826 307 233.295 307C247.765 307 259.508 295.253 259.508 280.78C259.438 266.376 247.695 254.559 233.295 254.559ZM233.295 303.644C220.713 303.644 210.437 293.365 210.437 280.78C210.437 268.194 220.713 257.916 233.295 257.916C245.878 257.916 256.153 268.194 256.153 280.78C256.083 293.365 245.878 303.644 233.295 303.644Z" fill="#FFEAC1"/>
<path d="M322.209 273.508C322.209 274.347 321.51 275.046 320.671 275.046C319.833 275.046 319.134 274.347 319.134 273.508C319.134 272.669 319.833 271.97 320.671 271.97C321.51 271.97 322.209 272.669 322.209 273.508ZM320.252 280.57C320.252 284.206 317.316 287.143 313.681 287.143C310.046 287.143 307.11 284.206 307.11 280.57C307.11 276.934 310.046 273.997 313.681 273.997C317.316 273.927 320.252 276.934 320.252 280.57ZM317.875 280.57C317.875 278.263 315.988 276.375 313.681 276.375C311.374 276.375 309.487 278.263 309.487 280.57C309.487 282.877 311.374 284.765 313.681 284.765C315.988 284.765 317.875 282.877 317.875 280.57ZM327.032 275.256C327.032 270.781 323.467 267.215 318.994 267.215H308.019C303.545 267.215 299.98 270.781 299.98 275.256V286.234C299.98 290.708 303.545 294.274 308.019 294.274H318.994C323.467 294.274 327.032 290.708 327.032 286.234V275.256ZM324.376 286.094C324.376 289.17 321.93 291.617 318.854 291.617H308.159C305.083 291.617 302.637 289.17 302.637 286.094V275.396C302.637 272.319 305.083 269.872 308.159 269.872H318.854C321.93 269.872 324.376 272.319 324.376 275.396V286.094Z" fill="#FFEAC1"/>
<path d="M313.471 254.559C299.001 254.559 287.258 266.306 287.258 280.78C287.258 295.253 299.001 307 313.471 307C327.941 307 339.684 295.253 339.684 280.78C339.684 266.306 327.941 254.559 313.471 254.559ZM313.471 303.574C300.889 303.574 290.613 293.295 290.613 280.71C290.613 268.124 300.889 257.846 313.471 257.846C326.053 257.846 336.329 268.124 336.329 280.71C336.329 293.365 326.123 303.574 313.471 303.574Z" fill="#FFEAC1"/>
<path d="M479.835 276.724C479.835 273.368 477.109 270.571 473.684 270.571H457.956C454.601 270.571 451.805 273.298 451.805 276.724V283.646C451.805 287.003 454.531 289.8 457.956 289.8H473.684C477.039 289.8 479.835 287.073 479.835 283.646V276.724ZM471.168 280.36L464.107 283.856C463.828 283.996 462.849 283.786 462.849 283.507V276.375C462.849 276.025 463.828 275.885 464.107 276.025L470.818 279.661C471.168 279.801 471.447 280.22 471.168 280.36Z" fill="#FFEAC1"/>
<path d="M465.858 254C451.388 254 439.645 265.747 439.645 280.22C439.645 294.694 451.388 306.441 465.858 306.441C480.327 306.441 492.071 294.694 492.071 280.22C492.001 265.747 480.257 254 465.858 254ZM465.858 303.015C453.275 303.015 443 292.736 443 280.15C443 267.565 453.275 257.286 465.858 257.286C478.44 257.286 488.716 267.565 488.716 280.15C488.646 292.806 478.44 303.015 465.858 303.015Z" fill="#FFEAC1"/>
</g>
<defs>
<clipPath id="clip0_154_2820">
<rect width="363" height="53" fill="white" transform="translate(129 254)"/>
</clipPath>
</defs>
</svg>
