<svg width="306" height="16" viewBox="0 0 306 16" fill="none" xmlns="http://www.w3.org/2000/svg">
<path d="M0.914062 9.73926C0.914062 9.63379 0.975586 9.58105 1.09863 9.58105H2.23242C2.33789 9.58105 2.41113 9.63965 2.45215 9.75684C2.95605 11.2568 4.23926 12.0068 6.30176 12.0068C7.37988 12.0068 8.20312 11.8164 8.77148 11.4355C9.3457 11.0488 9.63281 10.5713 9.63281 10.0029C9.63281 9.43457 9.45117 8.97754 9.08789 8.63184C8.73047 8.28027 8.16797 7.99609 7.40039 7.7793L4.24512 6.88281C2.20605 6.29688 1.18652 5.18652 1.18652 3.55176C1.18652 2.54395 1.61426 1.72363 2.46973 1.09082C3.33105 0.452148 4.48242 0.132812 5.92383 0.132812C7.36523 0.132812 8.52832 0.443359 9.41309 1.06445C10.3037 1.67969 10.8633 2.52637 11.0918 3.60449C11.1152 3.75098 11.0537 3.82422 10.9072 3.82422H9.77344C9.66797 3.82422 9.59473 3.7627 9.55371 3.63965C9.0498 2.13965 7.85156 1.38965 5.95898 1.38965C4.96289 1.38965 4.18652 1.58301 3.62988 1.96973C3.0791 2.35059 2.80371 2.83105 2.80371 3.41113C2.80371 3.98535 2.98242 4.43945 3.33984 4.77344C3.70312 5.10742 4.27441 5.38867 5.05371 5.61719L8.20898 6.52246C10.2363 7.09668 11.25 8.20703 11.25 9.85352C11.25 10.873 10.8076 11.6992 9.92285 12.332C9.04395 12.959 7.83691 13.2725 6.30176 13.2725C4.7666 13.2725 3.54199 12.9648 2.62793 12.3496C2.1709 12.0449 1.76953 11.6582 1.42383 11.1895C1.08398 10.7148 0.914062 10.2314 0.914062 9.73926ZM13.9482 9.03613V3.55176C13.9482 3.43457 14.0068 3.37305 14.124 3.36719H15.3896C15.5068 3.36719 15.5654 3.42871 15.5654 3.55176V9.03613C15.5654 9.98535 15.8115 10.7178 16.3037 11.2334C16.7959 11.749 17.4199 12.0068 18.1758 12.0068C18.5215 12.0068 18.8613 11.9424 19.1953 11.8135C19.5352 11.6787 19.8164 11.5234 20.0391 11.3477C20.2617 11.166 20.4609 10.9814 20.6367 10.7939C20.9766 10.4248 21.1465 10.1992 21.1465 10.1172V3.55176C21.1465 3.43457 21.2051 3.37305 21.3223 3.36719H22.5879C22.7051 3.36719 22.7637 3.42871 22.7637 3.55176V12.8242C22.7637 12.9414 22.7051 13 22.5879 13H21.5947C21.4775 13 21.4131 12.9414 21.4014 12.8242L21.2344 11.8311C21.1582 11.9482 21.0029 12.1035 20.7686 12.2969C20.54 12.4902 20.3145 12.6484 20.0918 12.7715C19.5059 13.1055 18.8379 13.2725 18.0879 13.2725C16.875 13.2725 15.8818 12.8975 15.1084 12.1475C14.335 11.3916 13.9482 10.3545 13.9482 9.03613ZM26.376 12.1914V0.581055C26.376 0.463867 26.4346 0.402344 26.5518 0.396484H27.8174C27.9346 0.396484 27.9932 0.458008 27.9932 0.581055V3.63965C28.7725 3.28223 29.6719 3.10352 30.6914 3.10352C32.0449 3.10352 33.1494 3.54297 34.0049 4.42188C34.8604 5.29492 35.2881 6.54883 35.2881 8.18359C35.2881 9.8125 34.8574 11.0693 33.9961 11.9541C33.1406 12.833 32.0098 13.2725 30.6035 13.2725C29.8359 13.2725 29.0977 13.1816 28.3887 13C27.6797 12.8184 27.1641 12.6396 26.8418 12.4639L26.376 12.1914ZM27.9932 11.4707C27.9932 11.4824 28.0957 11.5322 28.3008 11.6201C28.5059 11.7021 28.8105 11.7871 29.2148 11.875C29.625 11.9629 30.0293 12.0068 30.4277 12.0068C31.4238 12.0068 32.2119 11.6875 32.792 11.0488C33.3721 10.4043 33.6621 9.44629 33.6621 8.1748C33.6621 6.90332 33.375 5.95117 32.8008 5.31836C32.2266 4.67969 31.4766 4.36035 30.5508 4.36035C29.625 4.36035 28.7725 4.53906 27.9932 4.89648V11.4707ZM37.2832 10.4248C37.2773 10.3955 37.2744 10.3721 37.2744 10.3545C37.2744 10.2607 37.3389 10.2139 37.4678 10.2139H38.6016C38.6719 10.2139 38.7451 10.2725 38.8213 10.3896C39.4189 11.4678 40.4678 12.0068 41.9678 12.0068C42.8174 12.0068 43.4502 11.8809 43.8662 11.6289C44.2822 11.377 44.4902 11.0605 44.4902 10.6797C44.4902 10.2988 44.3467 9.98828 44.0596 9.74805C43.7783 9.50195 43.292 9.29688 42.6006 9.13281L40.3506 8.58789C38.4287 8.11914 37.4678 7.19043 37.4678 5.80176C37.4678 5.01074 37.8252 4.36328 38.54 3.85938C39.2549 3.35547 40.2363 3.10352 41.4844 3.10352C42.7324 3.10352 43.7402 3.36133 44.5078 3.87695C45.2754 4.39258 45.7793 5.08105 46.0195 5.94238C46.0547 6.08887 45.9932 6.16211 45.835 6.16211H44.7012C44.6309 6.16211 44.5605 6.10059 44.4902 5.97754C43.8926 4.89941 42.9023 4.36035 41.5195 4.36035C40.7168 4.36035 40.1104 4.48926 39.7002 4.74707C39.29 5.00488 39.085 5.32422 39.085 5.70508C39.085 6.08008 39.2256 6.3877 39.5068 6.62793C39.7939 6.86816 40.2832 7.07324 40.9746 7.24316L43.2246 7.7793C45.1465 8.23633 46.1074 9.16797 46.1074 10.5742C46.1074 11.3652 45.7441 12.0127 45.0176 12.5166C44.291 13.0205 43.2744 13.2725 41.9678 13.2725C40.6611 13.2725 39.6123 13.0176 38.8213 12.5078C38.0361 11.998 37.5234 11.3037 37.2832 10.4248ZM52.6201 13.2725C51.3076 13.2725 50.2236 12.833 49.3682 11.9541C48.5127 11.0693 48.085 9.80957 48.085 8.1748C48.085 6.53418 48.5127 5.28027 49.3682 4.41309C50.2295 3.54004 51.3076 3.10352 52.6025 3.10352C53.8975 3.10352 54.9111 3.37012 55.6436 3.90332C56.376 4.43652 56.8564 5.17773 57.085 6.12695C57.1201 6.27344 57.0586 6.34375 56.9004 6.33789H55.7666C55.6846 6.33789 55.6143 6.2793 55.5557 6.16211C55.0049 4.96094 54.0732 4.36035 52.7607 4.36035C51.8467 4.36035 51.1084 4.67969 50.5459 5.31836C49.9834 5.95117 49.7021 6.90039 49.7021 8.16602C49.7021 9.43164 49.9834 10.3896 50.5459 11.04C51.1143 11.6846 51.8086 12.0068 52.6289 12.0068C53.4492 12.0068 54.085 11.8574 54.5361 11.5586C54.9873 11.2598 55.3564 10.8115 55.6436 10.2139C55.7021 10.0967 55.7754 10.0352 55.8633 10.0293H56.9971C57.126 10.0293 57.1875 10.0762 57.1816 10.1699C57.1816 10.1934 57.1787 10.2197 57.1729 10.249C56.9443 11.21 56.458 11.9541 55.7139 12.4814C54.9697 13.0088 53.9385 13.2725 52.6201 13.2725ZM60.0732 12.8242V3.55176C60.0732 3.42871 60.1318 3.36719 60.249 3.36719H61.2422C61.3594 3.36719 61.4238 3.42871 61.4355 3.55176L61.6025 5.08105L61.7432 4.87891C61.8076 4.79688 61.9541 4.64453 62.1826 4.42188C62.417 4.19922 62.6748 4.00879 62.9561 3.85059C63.2432 3.68652 63.6182 3.53711 64.0811 3.40234C64.5498 3.26172 65.042 3.19141 65.5576 3.19141H66.2783C66.4014 3.19141 66.4629 3.25 66.4629 3.36719V4.44824C66.4629 4.57129 66.4014 4.63281 66.2783 4.63281H65.7422C65.1562 4.63281 64.6172 4.70898 64.125 4.86133C63.6328 5.00781 63.2402 5.18652 62.9473 5.39746C62.3555 5.83105 61.9717 6.21777 61.7959 6.55762L61.6904 6.78613V12.8242C61.6904 12.9414 61.6318 13 61.5146 13H60.249C60.1318 13 60.0732 12.9414 60.0732 12.8242ZM68.3613 0.756836C68.3613 0.516602 68.4814 0.396484 68.7217 0.396484H69.8906C70.0254 0.396484 70.1191 0.425781 70.1719 0.484375C70.2246 0.537109 70.251 0.62793 70.251 0.756836V1.92578C70.251 2.06055 70.2246 2.1543 70.1719 2.20703C70.1191 2.25977 70.0254 2.28613 69.8906 2.28613H68.7217C68.5928 2.28613 68.499 2.25977 68.4404 2.20703C68.3877 2.1543 68.3613 2.06055 68.3613 1.92578V0.756836ZM68.4932 12.8242V3.55176C68.4932 3.42871 68.5518 3.36719 68.6689 3.36719H69.9258C70.0488 3.36719 70.1104 3.42871 70.1104 3.55176V12.8242C70.1104 12.9414 70.0488 13 69.9258 13H68.6689C68.5518 13 68.4932 12.9414 68.4932 12.8242ZM73.6787 12.1914V0.581055C73.6787 0.463867 73.7373 0.402344 73.8545 0.396484H75.1201C75.2373 0.396484 75.2959 0.458008 75.2959 0.581055V3.63965C76.0752 3.28223 76.9746 3.10352 77.9941 3.10352C79.3477 3.10352 80.4521 3.54297 81.3076 4.42188C82.1631 5.29492 82.5908 6.54883 82.5908 8.18359C82.5908 9.8125 82.1602 11.0693 81.2988 11.9541C80.4434 12.833 79.3125 13.2725 77.9062 13.2725C77.1387 13.2725 76.4004 13.1816 75.6914 13C74.9824 12.8184 74.4668 12.6396 74.1445 12.4639L73.6787 12.1914ZM75.2959 11.4707C75.2959 11.4824 75.3984 11.5322 75.6035 11.6201C75.8086 11.7021 76.1133 11.7871 76.5176 11.875C76.9277 11.9629 77.332 12.0068 77.7305 12.0068C78.7266 12.0068 79.5146 11.6875 80.0947 11.0488C80.6748 10.4043 80.9648 9.44629 80.9648 8.1748C80.9648 6.90332 80.6777 5.95117 80.1035 5.31836C79.5293 4.67969 78.7793 4.36035 77.8535 4.36035C76.9277 4.36035 76.0752 4.53906 75.2959 4.89648V11.4707ZM89.2881 13.29C87.9814 13.29 86.8975 12.8477 86.0361 11.9629C85.1807 11.0723 84.7529 9.80957 84.7529 8.1748C84.7529 6.53418 85.1807 5.28027 86.0361 4.41309C86.8975 3.54004 88.0195 3.10352 89.4023 3.10352C90.791 3.10352 91.9219 3.54883 92.7949 4.43945C93.6738 5.32422 94.1133 6.49902 94.1133 7.96387V8.41211C94.1133 8.65234 93.9932 8.77246 93.7529 8.77246H86.3877C86.4873 9.8623 86.8096 10.6768 87.3545 11.2158C87.8994 11.7549 88.5908 12.0244 89.4287 12.0244C90.7529 12.0244 91.7139 11.4854 92.3115 10.4072C92.3818 10.29 92.4551 10.2314 92.5312 10.2314H93.665C93.8174 10.2314 93.876 10.3018 93.8408 10.4424C93.6006 11.3096 93.1084 12.001 92.3643 12.5166C91.6201 13.0322 90.5947 13.29 89.2881 13.29ZM86.3877 7.50684H92.4961C92.4434 6.56348 92.1211 5.80469 91.5293 5.23047C90.9375 4.65039 90.2314 4.36035 89.4111 4.36035C88.5967 4.36035 87.9141 4.62695 87.3633 5.16016C86.8125 5.69336 86.4873 6.47559 86.3877 7.50684ZM102.401 12.8242V0.581055C102.401 0.458008 102.46 0.396484 102.577 0.396484H111.296C111.413 0.396484 111.472 0.458008 111.472 0.581055V1.47754C111.472 1.60059 111.413 1.66211 111.296 1.66211H104.019V5.97754H110.03C110.153 5.97754 110.215 6.03906 110.215 6.16211V7.05859C110.215 7.18164 110.153 7.24316 110.03 7.24316H104.019V11.7432H111.296C111.413 11.7432 111.472 11.8018 111.472 11.9189V12.8242C111.472 12.9414 111.413 13 111.296 13H102.577C102.46 13 102.401 12.9414 102.401 12.8242ZM113.818 0.756836C113.818 0.516602 113.938 0.396484 114.179 0.396484H115.348C115.482 0.396484 115.576 0.425781 115.629 0.484375C115.682 0.537109 115.708 0.62793 115.708 0.756836V1.92578C115.708 2.06055 115.682 2.1543 115.629 2.20703C115.576 2.25977 115.482 2.28613 115.348 2.28613H114.179C114.05 2.28613 113.956 2.25977 113.897 2.20703C113.845 2.1543 113.818 2.06055 113.818 1.92578V0.756836ZM113.95 12.8242V3.55176C113.95 3.42871 114.009 3.36719 114.126 3.36719H115.383C115.506 3.36719 115.567 3.42871 115.567 3.55176V12.8242C115.567 12.9414 115.506 13 115.383 13H114.126C114.009 13 113.95 12.9414 113.95 12.8242ZM119.136 12.8242V0.581055C119.136 0.463867 119.194 0.402344 119.312 0.396484H120.577C120.694 0.396484 120.753 0.458008 120.753 0.581055V7.50684H121.658C122.643 7.50684 123.422 7.05859 123.996 6.16211L125.631 3.55176C125.713 3.43457 125.804 3.37305 125.903 3.36719H127.292C127.474 3.36719 127.515 3.44043 127.415 3.58691L125.701 6.33789C125.08 7.33398 124.33 7.90527 123.451 8.05176C124.365 8.18652 125.177 8.81641 125.886 9.94141L127.67 12.7803C127.705 12.833 127.72 12.8828 127.714 12.9297C127.714 12.9766 127.655 13 127.538 13H126.158C126.064 13 125.974 12.9414 125.886 12.8242L124.172 10.1172C123.598 9.21484 122.818 8.7666 121.834 8.77246H120.753V12.8242C120.753 12.9414 120.694 13 120.577 13H119.312C119.194 13 119.136 12.9414 119.136 12.8242ZM134.024 13.2725C132.624 13.2725 131.493 12.833 130.632 11.9541C129.776 11.0693 129.349 9.80957 129.349 8.1748C129.349 6.53418 129.776 5.28027 130.632 4.41309C131.493 3.54004 132.624 3.10352 134.024 3.10352C135.431 3.10352 136.562 3.54004 137.417 4.41309C138.278 5.28027 138.709 6.53418 138.709 8.1748C138.709 9.80957 138.278 11.0693 137.417 11.9541C136.562 12.833 135.431 13.2725 134.024 13.2725ZM134.024 4.36035C133.116 4.36035 132.378 4.67969 131.81 5.31836C131.247 5.95117 130.966 6.90039 130.966 8.16602C130.966 9.43164 131.247 10.3896 131.81 11.04C132.378 11.6846 133.116 12.0068 134.024 12.0068C134.938 12.0068 135.677 11.6846 136.239 11.04C136.808 10.3896 137.092 9.43164 137.092 8.16602C137.092 6.90039 136.808 5.95117 136.239 5.31836C135.677 4.67969 134.938 4.36035 134.024 4.36035ZM141.601 12.8242V3.55176C141.601 3.42871 141.659 3.36719 141.776 3.36719H142.77C142.887 3.36719 142.951 3.42871 142.963 3.55176L143.13 4.53613C143.2 4.43652 143.353 4.28711 143.587 4.08789C143.821 3.88281 144.05 3.71875 144.272 3.5957C144.847 3.26758 145.515 3.10352 146.276 3.10352C147.489 3.10352 148.482 3.47852 149.256 4.22852C150.029 4.97852 150.416 6.0127 150.416 7.33105V12.8242C150.416 12.9414 150.357 13 150.24 13H148.975C148.857 13 148.799 12.9414 148.799 12.8242V7.33105C148.799 6.38184 148.553 5.64941 148.061 5.13379C147.568 4.61816 146.944 4.36035 146.188 4.36035C145.843 4.36035 145.5 4.42773 145.16 4.5625C144.826 4.69141 144.548 4.84668 144.325 5.02832C144.103 5.2041 143.906 5.38574 143.736 5.57324C143.391 5.94238 143.218 6.16797 143.218 6.25V12.8242C143.218 12.9414 143.159 13 143.042 13H141.776C141.659 13 141.601 12.9414 141.601 12.8242ZM153.668 0.756836C153.668 0.516602 153.788 0.396484 154.028 0.396484H155.197C155.332 0.396484 155.426 0.425781 155.479 0.484375C155.531 0.537109 155.558 0.62793 155.558 0.756836V1.92578C155.558 2.06055 155.531 2.1543 155.479 2.20703C155.426 2.25977 155.332 2.28613 155.197 2.28613H154.028C153.899 2.28613 153.806 2.25977 153.747 2.20703C153.694 2.1543 153.668 2.06055 153.668 1.92578V0.756836ZM153.8 12.8242V3.55176C153.8 3.42871 153.858 3.36719 153.976 3.36719H155.232C155.355 3.36719 155.417 3.42871 155.417 3.55176V12.8242C155.417 12.9414 155.355 13 155.232 13H153.976C153.858 13 153.8 12.9414 153.8 12.8242ZM158.985 12.8242V0.581055C158.985 0.463867 159.044 0.402344 159.161 0.396484H160.427C160.544 0.396484 160.603 0.458008 160.603 0.581055V7.50684H161.508C162.492 7.50684 163.271 7.05859 163.846 6.16211L165.48 3.55176C165.562 3.43457 165.653 3.37305 165.753 3.36719H167.142C167.323 3.36719 167.364 3.44043 167.265 3.58691L165.551 6.33789C164.93 7.33398 164.18 7.90527 163.301 8.05176C164.215 8.18652 165.026 8.81641 165.735 9.94141L167.52 12.7803C167.555 12.833 167.569 12.8828 167.563 12.9297C167.563 12.9766 167.505 13 167.388 13H166.008C165.914 13 165.823 12.9414 165.735 12.8242L164.021 10.1172C163.447 9.21484 162.668 8.7666 161.684 8.77246H160.603V12.8242C160.603 12.9414 160.544 13 160.427 13H159.161C159.044 13 158.985 12.9414 158.985 12.8242ZM173.874 13.2725C172.474 13.2725 171.343 12.833 170.481 11.9541C169.626 11.0693 169.198 9.80957 169.198 8.1748C169.198 6.53418 169.626 5.28027 170.481 4.41309C171.343 3.54004 172.474 3.10352 173.874 3.10352C175.28 3.10352 176.411 3.54004 177.267 4.41309C178.128 5.28027 178.559 6.53418 178.559 8.1748C178.559 9.80957 178.128 11.0693 177.267 11.9541C176.411 12.833 175.28 13.2725 173.874 13.2725ZM173.874 4.36035C172.966 4.36035 172.228 4.67969 171.659 5.31836C171.097 5.95117 170.815 6.90039 170.815 8.16602C170.815 9.43164 171.097 10.3896 171.659 11.04C172.228 11.6846 172.966 12.0068 173.874 12.0068C174.788 12.0068 175.526 11.6846 176.089 11.04C176.657 10.3896 176.941 9.43164 176.941 8.16602C176.941 6.90039 176.657 5.95117 176.089 5.31836C175.526 4.67969 174.788 4.36035 173.874 4.36035ZM180.562 10.4248C180.557 10.3955 180.554 10.3721 180.554 10.3545C180.554 10.2607 180.618 10.2139 180.747 10.2139H181.881C181.951 10.2139 182.024 10.2725 182.101 10.3896C182.698 11.4678 183.747 12.0068 185.247 12.0068C186.097 12.0068 186.729 11.8809 187.146 11.6289C187.562 11.377 187.77 11.0605 187.77 10.6797C187.77 10.2988 187.626 9.98828 187.339 9.74805C187.058 9.50195 186.571 9.29688 185.88 9.13281L183.63 8.58789C181.708 8.11914 180.747 7.19043 180.747 5.80176C180.747 5.01074 181.104 4.36328 181.819 3.85938C182.534 3.35547 183.516 3.10352 184.764 3.10352C186.012 3.10352 187.02 3.36133 187.787 3.87695C188.555 4.39258 189.059 5.08105 189.299 5.94238C189.334 6.08887 189.272 6.16211 189.114 6.16211H187.98C187.91 6.16211 187.84 6.10059 187.77 5.97754C187.172 4.89941 186.182 4.36035 184.799 4.36035C183.996 4.36035 183.39 4.48926 182.979 4.74707C182.569 5.00488 182.364 5.32422 182.364 5.70508C182.364 6.08008 182.505 6.3877 182.786 6.62793C183.073 6.86816 183.562 7.07324 184.254 7.24316L186.504 7.7793C188.426 8.23633 189.387 9.16797 189.387 10.5742C189.387 11.3652 189.023 12.0127 188.297 12.5166C187.57 13.0205 186.554 13.2725 185.247 13.2725C183.94 13.2725 182.892 13.0176 182.101 12.5078C181.315 11.998 180.803 11.3037 180.562 10.4248ZM197.481 12.8242V3.55176C197.481 3.42871 197.54 3.36719 197.657 3.36719H198.65C198.768 3.36719 198.832 3.42871 198.844 3.55176L199.011 4.53613C199.081 4.43652 199.233 4.28711 199.468 4.08789C199.702 3.88281 199.931 3.71875 200.153 3.5957C200.728 3.26758 201.396 3.10352 202.157 3.10352C203.37 3.10352 204.363 3.47852 205.137 4.22852C205.91 4.97852 206.297 6.0127 206.297 7.33105V12.8242C206.297 12.9414 206.238 13 206.121 13H204.855C204.738 13 204.68 12.9414 204.68 12.8242V7.33105C204.68 6.38184 204.434 5.64941 203.941 5.13379C203.449 4.61816 202.825 4.36035 202.069 4.36035C201.724 4.36035 201.381 4.42773 201.041 4.5625C200.707 4.69141 200.429 4.84668 200.206 5.02832C199.983 5.2041 199.787 5.38574 199.617 5.57324C199.271 5.94238 199.099 6.16797 199.099 6.25V12.8242C199.099 12.9414 199.04 13 198.923 13H197.657C197.54 13 197.481 12.9414 197.481 12.8242ZM213.548 13.29C212.241 13.29 211.157 12.8477 210.296 11.9629C209.44 11.0723 209.013 9.80957 209.013 8.1748C209.013 6.53418 209.44 5.28027 210.296 4.41309C211.157 3.54004 212.279 3.10352 213.662 3.10352C215.051 3.10352 216.182 3.54883 217.055 4.43945C217.934 5.32422 218.373 6.49902 218.373 7.96387V8.41211C218.373 8.65234 218.253 8.77246 218.013 8.77246H210.647C210.747 9.8623 211.069 10.6768 211.614 11.2158C212.159 11.7549 212.851 12.0244 213.688 12.0244C215.013 12.0244 215.974 11.4854 216.571 10.4072C216.642 10.29 216.715 10.2314 216.791 10.2314H217.925C218.077 10.2314 218.136 10.3018 218.101 10.4424C217.86 11.3096 217.368 12.001 216.624 12.5166C215.88 13.0322 214.854 13.29 213.548 13.29ZM210.647 7.50684H216.756C216.703 6.56348 216.381 5.80469 215.789 5.23047C215.197 4.65039 214.491 4.36035 213.671 4.36035C212.856 4.36035 212.174 4.62695 211.623 5.16016C211.072 5.69336 210.747 6.47559 210.647 7.50684ZM219.841 3.55176C219.829 3.52832 219.823 3.50488 219.823 3.48145C219.823 3.40527 219.879 3.36719 219.99 3.36719H221.212C221.358 3.36719 221.449 3.42871 221.484 3.55176L223.91 10.8379L226.16 3.91211C226.283 3.54883 226.523 3.36719 226.881 3.36719H227.426C227.783 3.36719 228.023 3.54883 228.146 3.91211L230.396 10.8379L232.822 3.55176C232.857 3.42871 232.948 3.36719 233.095 3.36719H234.316C234.428 3.36719 234.483 3.40527 234.483 3.48145C234.483 3.50488 234.475 3.52832 234.457 3.55176L231.469 12.4639C231.398 12.6514 231.313 12.7891 231.214 12.877C231.12 12.959 230.968 13 230.757 13H230.124C229.749 13 229.509 12.8213 229.403 12.4639L227.153 5.5293L224.903 12.4639C224.798 12.8213 224.558 13 224.183 13H223.55C223.339 13 223.184 12.959 223.084 12.877C222.99 12.7891 222.905 12.6514 222.829 12.4639L219.841 3.55176ZM235.758 10.4248C235.752 10.3955 235.749 10.3721 235.749 10.3545C235.749 10.2607 235.813 10.2139 235.942 10.2139H237.076C237.146 10.2139 237.22 10.2725 237.296 10.3896C237.894 11.4678 238.942 12.0068 240.442 12.0068C241.292 12.0068 241.925 11.8809 242.341 11.6289C242.757 11.377 242.965 11.0605 242.965 10.6797C242.965 10.2988 242.821 9.98828 242.534 9.74805C242.253 9.50195 241.767 9.29688 241.075 9.13281L238.825 8.58789C236.903 8.11914 235.942 7.19043 235.942 5.80176C235.942 5.01074 236.3 4.36328 237.015 3.85938C237.729 3.35547 238.711 3.10352 239.959 3.10352C241.207 3.10352 242.215 3.36133 242.982 3.87695C243.75 4.39258 244.254 5.08105 244.494 5.94238C244.529 6.08887 244.468 6.16211 244.31 6.16211H243.176C243.105 6.16211 243.035 6.10059 242.965 5.97754C242.367 4.89941 241.377 4.36035 239.994 4.36035C239.191 4.36035 238.585 4.48926 238.175 4.74707C237.765 5.00488 237.56 5.32422 237.56 5.70508C237.56 6.08008 237.7 6.3877 237.981 6.62793C238.269 6.86816 238.758 7.07324 239.449 7.24316L241.699 7.7793C243.621 8.23633 244.582 9.16797 244.582 10.5742C244.582 11.3652 244.219 12.0127 243.492 12.5166C242.766 13.0205 241.749 13.2725 240.442 13.2725C239.136 13.2725 238.087 13.0176 237.296 12.5078C236.511 11.998 235.998 11.3037 235.758 10.4248ZM247.28 15.7861V3.55176C247.28 3.43457 247.339 3.37305 247.456 3.36719H248.449C248.566 3.36719 248.631 3.42871 248.643 3.55176L248.81 4.53613C248.874 4.43652 249.021 4.28711 249.249 4.08789C249.483 3.88281 249.706 3.71875 249.917 3.5957C250.462 3.26758 251.083 3.10352 251.78 3.10352C253.063 3.10352 254.118 3.54004 254.944 4.41309C255.776 5.28027 256.192 6.53418 256.192 8.1748C256.192 9.81543 255.765 11.0752 254.909 11.9541C254.06 12.833 252.955 13.2725 251.596 13.2725C251.139 13.2725 250.685 13.2256 250.233 13.1318C249.788 13.0439 249.451 12.9531 249.223 12.8594L248.897 12.7275V15.7861C248.897 15.9033 248.839 15.9648 248.722 15.9707H247.456C247.339 15.9648 247.28 15.9033 247.28 15.7861ZM248.897 11.4707C249.677 11.8281 250.529 12.0068 251.455 12.0068C252.381 12.0068 253.131 11.6904 253.705 11.0576C254.279 10.4189 254.566 9.4668 254.566 8.20117C254.566 6.93555 254.303 5.98047 253.775 5.33594C253.248 4.68555 252.554 4.36035 251.692 4.36035C250.854 4.36035 250.09 4.76465 249.398 5.57324C249.064 5.95996 248.897 6.18555 248.897 6.25V11.4707ZM262.89 13.29C261.583 13.29 260.499 12.8477 259.638 11.9629C258.782 11.0723 258.354 9.80957 258.354 8.1748C258.354 6.53418 258.782 5.28027 259.638 4.41309C260.499 3.54004 261.621 3.10352 263.004 3.10352C264.393 3.10352 265.523 3.54883 266.396 4.43945C267.275 5.32422 267.715 6.49902 267.715 7.96387V8.41211C267.715 8.65234 267.595 8.77246 267.354 8.77246H259.989C260.089 9.8623 260.411 10.6768 260.956 11.2158C261.501 11.7549 262.192 12.0244 263.03 12.0244C264.354 12.0244 265.315 11.4854 265.913 10.4072C265.983 10.29 266.057 10.2314 266.133 10.2314H267.267C267.419 10.2314 267.478 10.3018 267.442 10.4424C267.202 11.3096 266.71 12.001 265.966 12.5166C265.222 13.0322 264.196 13.29 262.89 13.29ZM259.989 7.50684H266.098C266.045 6.56348 265.723 5.80469 265.131 5.23047C264.539 4.65039 263.833 4.36035 263.013 4.36035C262.198 4.36035 261.516 4.62695 260.965 5.16016C260.414 5.69336 260.089 6.47559 259.989 7.50684ZM270.606 9.30859V0.581055C270.606 0.458008 270.665 0.396484 270.782 0.396484H272.048C272.165 0.396484 272.224 0.458008 272.224 0.581055V3.36719H275.897C276.015 3.36719 276.073 3.42871 276.073 3.55176V4.44824C276.073 4.57129 276.015 4.63281 275.897 4.63281H272.224V9.30859C272.224 10.1992 272.429 10.873 272.839 11.3301C273.255 11.7812 273.829 12.0068 274.562 12.0068C275.206 12.0068 275.783 11.9189 276.293 11.7432L276.548 11.6465C276.665 11.5996 276.724 11.6494 276.724 11.7959V12.6748C276.724 12.7744 276.665 12.8535 276.548 12.9121C275.944 13.1523 275.224 13.2725 274.386 13.2725C273.231 13.2725 272.312 12.9092 271.626 12.1826C270.946 11.4561 270.606 10.498 270.606 9.30859ZM279.079 9.30859V0.581055C279.079 0.458008 279.138 0.396484 279.255 0.396484H280.521C280.638 0.396484 280.696 0.458008 280.696 0.581055V3.36719H284.37C284.487 3.36719 284.546 3.42871 284.546 3.55176V4.44824C284.546 4.57129 284.487 4.63281 284.37 4.63281H280.696V9.30859C280.696 10.1992 280.901 10.873 281.312 11.3301C281.728 11.7812 282.302 12.0068 283.034 12.0068C283.679 12.0068 284.256 11.9189 284.766 11.7432L285.021 11.6465C285.138 11.5996 285.196 11.6494 285.196 11.7959V12.6748C285.196 12.7744 285.138 12.8535 285.021 12.9121C284.417 13.1523 283.696 13.2725 282.858 13.2725C281.704 13.2725 280.784 12.9092 280.099 12.1826C279.419 11.4561 279.079 10.498 279.079 9.30859ZM291.366 13.29C290.06 13.29 288.976 12.8477 288.114 11.9629C287.259 11.0723 286.831 9.80957 286.831 8.1748C286.831 6.53418 287.259 5.28027 288.114 4.41309C288.976 3.54004 290.098 3.10352 291.48 3.10352C292.869 3.10352 294 3.54883 294.873 4.43945C295.752 5.32422 296.191 6.49902 296.191 7.96387V8.41211C296.191 8.65234 296.071 8.77246 295.831 8.77246H288.466C288.565 9.8623 288.888 10.6768 289.433 11.2158C289.978 11.7549 290.669 12.0244 291.507 12.0244C292.831 12.0244 293.792 11.4854 294.39 10.4072C294.46 10.29 294.533 10.2314 294.609 10.2314H295.743C295.896 10.2314 295.954 10.3018 295.919 10.4424C295.679 11.3096 295.187 12.001 294.442 12.5166C293.698 13.0322 292.673 13.29 291.366 13.29ZM288.466 7.50684H294.574C294.521 6.56348 294.199 5.80469 293.607 5.23047C293.016 4.65039 292.31 4.36035 291.489 4.36035C290.675 4.36035 289.992 4.62695 289.441 5.16016C288.891 5.69336 288.565 6.47559 288.466 7.50684ZM299.083 12.8242V3.55176C299.083 3.42871 299.142 3.36719 299.259 3.36719H300.252C300.369 3.36719 300.434 3.42871 300.445 3.55176L300.612 5.08105L300.753 4.87891C300.817 4.79688 300.964 4.64453 301.192 4.42188C301.427 4.19922 301.685 4.00879 301.966 3.85059C302.253 3.68652 302.628 3.53711 303.091 3.40234C303.56 3.26172 304.052 3.19141 304.567 3.19141H305.288C305.411 3.19141 305.473 3.25 305.473 3.36719V4.44824C305.473 4.57129 305.411 4.63281 305.288 4.63281H304.752C304.166 4.63281 303.627 4.70898 303.135 4.86133C302.643 5.00781 302.25 5.18652 301.957 5.39746C301.365 5.83105 300.981 6.21777 300.806 6.55762L300.7 6.78613V12.8242C300.7 12.9414 300.642 13 300.524 13H299.259C299.142 13 299.083 12.9414 299.083 12.8242Z" fill="white"/>
</svg>
