<svg width="63" height="26" viewBox="0 0 63 26" fill="none" xmlns="http://www.w3.org/2000/svg">
<path d="M20.7257 26V21.392L26.1257 20.564V20.78H29.1497V26H20.7257ZM5.38972 26C4.42972 26 3.55372 25.772 2.76172 25.316C1.99372 24.836 1.36972 24.212 0.889719 23.444C0.433719 22.652 0.205719 21.776 0.205719 20.816V5.264C0.205719 4.304 0.433719 3.44 0.889719 2.672C1.36972 1.88 1.99372 1.256 2.76172 0.799998C3.55372 0.319999 4.42972 0.079999 5.38972 0.079999H20.9417C21.8777 0.079999 22.7297 0.319999 23.4977 0.799998C24.2897 1.256 24.9257 1.88 25.4057 2.672C25.8857 3.44 26.1257 4.304 26.1257 5.264V20.816C26.1257 21.776 25.8857 22.652 25.4057 23.444C24.9257 24.212 24.2897 24.836 23.4977 25.316C22.7297 25.772 21.8777 26 20.9417 26H5.38972ZM5.60572 20.78H20.6537C20.7257 20.78 20.7737 20.768 20.7977 20.744C20.8457 20.696 20.8697 20.636 20.8697 20.564V5.516C20.8697 5.444 20.8457 5.396 20.7977 5.372C20.7737 5.324 20.7257 5.3 20.6537 5.3H5.60572C5.53372 5.3 5.47372 5.324 5.42572 5.372C5.40172 5.396 5.38972 5.444 5.38972 5.516V20.564C5.38972 20.636 5.40172 20.696 5.42572 20.744C5.47372 20.768 5.53372 20.78 5.60572 20.78ZM32.2021 17.936V12.788H47.0701V17.936H32.2021ZM57.0998 26V7.712L55.5158 9.692H48.7118L56.7758 0.079999H62.2478V26H57.0998Z" fill="white"/>
</svg>
