<svg width="880" height="51" viewBox="0 0 880 51" fill="none" xmlns="http://www.w3.org/2000/svg">
<path d="M0.548281 51V0.599998H47.0283V10.75H10.7683V20.69H39.9583V30.91H10.7683V40.85H47.0283V51H0.548281ZM52.602 51V0.599998H62.612V51H52.602ZM69.658 51V0.599998H79.808V20.69H90.658L107.458 0.599998H118.238V3.82L99.758 25.8L118.238 47.78V51H107.458L90.658 30.91H79.808V51H69.658ZM135.309 51C133.443 51 131.739 50.5567 130.199 49.67C128.706 48.7367 127.493 47.5233 126.559 46.03C125.673 44.49 125.229 42.7867 125.229 40.92V10.68C125.229 8.81333 125.673 7.13333 126.559 5.64C127.493 4.1 128.706 2.88666 130.199 2C131.739 1.06666 133.443 0.599998 135.309 0.599998H165.549C167.369 0.599998 169.026 1.06666 170.519 2C172.059 2.88666 173.296 4.1 174.229 5.64C175.163 7.13333 175.629 8.81333 175.629 10.68V40.92C175.629 42.7867 175.163 44.49 174.229 46.03C173.296 47.5233 172.059 48.7367 170.519 49.67C169.026 50.5567 167.369 51 165.549 51H135.309ZM135.729 40.85H164.989C165.129 40.85 165.223 40.8267 165.269 40.78C165.363 40.6867 165.409 40.57 165.409 40.43V11.17C165.409 11.03 165.363 10.9367 165.269 10.89C165.223 10.7967 165.129 10.75 164.989 10.75H135.729C135.589 10.75 135.473 10.7967 135.379 10.89C135.333 10.9367 135.309 11.03 135.309 11.17V40.43C135.309 40.57 135.333 40.6867 135.379 40.78C135.473 40.8267 135.589 40.85 135.729 40.85ZM183.338 51V0.599998H194.048L223.518 35.74V0.599998H233.738V51H223.028L193.418 15.72V51H183.338ZM240.18 51V0.599998H250.19V51H240.18ZM257.236 51V0.599998H267.386V20.69H278.236L295.036 0.599998H305.816V3.82L287.336 25.8L305.816 47.78V51H295.036L278.236 30.91H267.386V51H257.236ZM322.887 51C321.021 51 319.317 50.5567 317.777 49.67C316.284 48.7367 315.071 47.5233 314.137 46.03C313.251 44.49 312.807 42.7867 312.807 40.92V10.68C312.807 8.81333 313.251 7.13333 314.137 5.64C315.071 4.1 316.284 2.88666 317.777 2C319.317 1.06666 321.021 0.599998 322.887 0.599998H353.127C354.947 0.599998 356.604 1.06666 358.097 2C359.637 2.88666 360.874 4.1 361.807 5.64C362.741 7.13333 363.207 8.81333 363.207 10.68V40.92C363.207 42.7867 362.741 44.49 361.807 46.03C360.874 47.5233 359.637 48.7367 358.097 49.67C356.604 50.5567 354.947 51 353.127 51H322.887ZM323.307 40.85H352.567C352.707 40.85 352.801 40.8267 352.847 40.78C352.941 40.6867 352.987 40.57 352.987 40.43V11.17C352.987 11.03 352.941 10.9367 352.847 10.89C352.801 10.7967 352.707 10.75 352.567 10.75H323.307C323.167 10.75 323.051 10.7967 322.957 10.89C322.911 10.9367 322.887 11.03 322.887 11.17V40.43C322.887 40.57 322.911 40.6867 322.957 40.78C323.051 40.8267 323.167 40.85 323.307 40.85ZM380.786 51C378.966 51 377.286 50.5567 375.746 49.67C374.206 48.7367 372.993 47.5233 372.106 46.03C371.219 44.49 370.776 42.7867 370.776 40.92V36.65H380.856V40.43C380.856 40.57 380.879 40.6867 380.926 40.78C381.019 40.8267 381.113 40.85 381.206 40.85H410.536C410.629 40.85 410.723 40.8267 410.816 40.78C410.909 40.6867 410.956 40.57 410.956 40.43V31.26C410.956 31.1667 410.909 31.0967 410.816 31.05C410.723 30.9567 410.629 30.91 410.536 30.91H380.786C378.966 30.91 377.286 30.4667 375.746 29.58C374.206 28.6467 372.993 27.41 372.106 25.87C371.219 24.33 370.776 22.65 370.776 20.83V10.68C370.776 8.81333 371.219 7.13333 372.106 5.64C372.993 4.1 374.206 2.88666 375.746 2C377.286 1.06666 378.966 0.599998 380.786 0.599998H411.096C412.916 0.599998 414.573 1.06666 416.066 2C417.606 2.88666 418.843 4.1 419.776 5.64C420.709 7.13333 421.176 8.81333 421.176 10.68V14.95H410.956V11.17C410.956 11.03 410.909 10.9367 410.816 10.89C410.723 10.7967 410.629 10.75 410.536 10.75H381.206C381.113 10.75 381.019 10.7967 380.926 10.89C380.879 10.9367 380.856 11.03 380.856 11.17V20.34C380.856 20.4333 380.879 20.5267 380.926 20.62C381.019 20.6667 381.113 20.69 381.206 20.69H411.096C412.916 20.69 414.573 21.1567 416.066 22.09C417.606 22.9767 418.843 24.19 419.776 25.73C420.709 27.27 421.176 28.95 421.176 30.77V40.92C421.176 42.7867 420.709 44.49 419.776 46.03C418.843 47.5233 417.606 48.7367 416.066 49.67C414.573 50.5567 412.916 51 411.096 51H380.786ZM490.517 51L475.607 33.22H488.837L501.157 47.85V51H490.517ZM450.897 51V0.669997H491.147C493.013 0.669997 494.693 1.13666 496.187 2.07C497.727 2.95666 498.963 4.17 499.897 5.71C500.83 7.25 501.297 8.93 501.297 10.75V24.05C501.297 25.87 500.83 27.55 499.897 29.09C498.963 30.5833 497.727 31.7967 496.187 32.73C494.693 33.6167 493.013 34.06 491.147 34.06L460.977 34.13V51H450.897ZM461.397 23.91H490.657C490.797 23.91 490.89 23.8867 490.937 23.84C491.03 23.7467 491.077 23.6533 491.077 23.56V11.17C491.077 11.03 491.03 10.9367 490.937 10.89C490.89 10.7967 490.797 10.75 490.657 10.75H461.397C461.257 10.75 461.14 10.7967 461.047 10.89C461 10.9367 460.977 11.03 460.977 11.17V23.56C460.977 23.6533 461 23.7467 461.047 23.84C461.14 23.8867 461.257 23.91 461.397 23.91ZM518.6 51C516.734 51 515.03 50.5567 513.49 49.67C511.997 48.7367 510.784 47.5233 509.85 46.03C508.964 44.49 508.52 42.7867 508.52 40.92V10.68C508.52 8.81333 508.964 7.13333 509.85 5.64C510.784 4.1 511.997 2.88666 513.49 2C515.03 1.06666 516.734 0.599998 518.6 0.599998H548.84C550.66 0.599998 552.317 1.06666 553.81 2C555.35 2.88666 556.587 4.1 557.52 5.64C558.454 7.13333 558.92 8.81333 558.92 10.68V40.92C558.92 42.7867 558.454 44.49 557.52 46.03C556.587 47.5233 555.35 48.7367 553.81 49.67C552.317 50.5567 550.66 51 548.84 51H518.6ZM519.02 40.85H548.28C548.42 40.85 548.514 40.8267 548.56 40.78C548.654 40.6867 548.7 40.57 548.7 40.43V11.17C548.7 11.03 548.654 10.9367 548.56 10.89C548.514 10.7967 548.42 10.75 548.28 10.75H519.02C518.88 10.75 518.764 10.7967 518.67 10.89C518.624 10.9367 518.6 11.03 518.6 11.17V40.43C518.6 40.57 518.624 40.6867 518.67 40.78C518.764 40.8267 518.88 40.85 519.02 40.85ZM566.769 51V10.68C566.769 8.81333 567.212 7.13333 568.099 5.64C569.032 4.1 570.246 2.88666 571.739 2C573.279 1.06666 574.982 0.599998 576.849 0.599998H607.019C608.886 0.599998 610.566 1.06666 612.059 2C613.599 2.88666 614.836 4.1 615.769 5.64C616.702 7.13333 617.169 8.81333 617.169 10.68V51H606.949V34.41H576.849V51H566.769ZM576.849 24.33H606.949V11.17C606.949 11.03 606.902 10.9367 606.809 10.89C606.762 10.7967 606.669 10.75 606.529 10.75H577.269C577.129 10.75 577.012 10.7967 576.919 10.89C576.872 10.9367 576.849 11.03 576.849 11.17V24.33ZM625.285 51V0.599998H665.535C667.401 0.599998 669.081 1.06666 670.575 2C672.115 2.88666 673.351 4.1 674.285 5.64C675.218 7.13333 675.685 8.81333 675.685 10.68V40.92C675.685 42.7867 675.218 44.49 674.285 46.03C673.351 47.5233 672.115 48.7367 670.575 49.67C669.081 50.5567 667.401 51 665.535 51H625.285ZM635.715 40.85H665.045C665.185 40.85 665.278 40.8267 665.325 40.78C665.418 40.6867 665.465 40.57 665.465 40.43V11.17C665.465 11.03 665.418 10.9367 665.325 10.89C665.278 10.7967 665.185 10.75 665.045 10.75H635.715C635.621 10.75 635.528 10.7967 635.435 10.89C635.341 10.9367 635.295 11.03 635.295 11.17V40.43C635.295 40.57 635.341 40.6867 635.435 40.78C635.528 40.8267 635.621 40.85 635.715 40.85ZM705.604 51V0.599998H716.314L733.954 21.67L751.524 0.599998H762.304V51H752.154V15.65L733.954 37.42L715.684 15.72V51H705.604ZM770.685 51V10.68C770.685 8.81333 771.128 7.13333 772.015 5.64C772.948 4.1 774.162 2.88666 775.655 2C777.195 1.06666 778.898 0.599998 780.765 0.599998H810.935C812.802 0.599998 814.482 1.06666 815.975 2C817.515 2.88666 818.752 4.1 819.685 5.64C820.618 7.13333 821.085 8.81333 821.085 10.68V51H810.865V34.41H780.765V51H770.685ZM780.765 24.33H810.865V11.17C810.865 11.03 810.818 10.9367 810.725 10.89C810.678 10.7967 810.585 10.75 810.445 10.75H781.185C781.045 10.75 780.928 10.7967 780.835 10.89C780.788 10.9367 780.765 11.03 780.765 11.17V24.33ZM829.061 51V0.669997H869.311C871.177 0.669997 872.857 1.13666 874.351 2.07C875.891 2.95666 877.127 4.17 878.061 5.71C878.994 7.25 879.461 8.93 879.461 10.75V24.05C879.461 25.87 878.994 27.55 878.061 29.09C877.127 30.5833 875.891 31.7967 874.351 32.73C872.857 33.6167 871.177 34.06 869.311 34.06L839.141 34.13V51H829.061ZM839.561 23.91H868.821C868.961 23.91 869.054 23.8867 869.101 23.84C869.194 23.7467 869.241 23.6533 869.241 23.56V11.17C869.241 11.03 869.194 10.9367 869.101 10.89C869.054 10.7967 868.961 10.75 868.821 10.75H839.561C839.421 10.75 839.304 10.7967 839.211 10.89C839.164 10.9367 839.141 11.03 839.141 11.17V23.56C839.141 23.6533 839.164 23.7467 839.211 23.84C839.304 23.8867 839.421 23.91 839.561 23.91Z" fill="url(#paint0_linear_212_22173)"/>
<defs>
<linearGradient id="paint0_linear_212_22173" x1="439.006" y1="-25" x2="439.006" y2="81" gradientUnits="userSpaceOnUse">
<stop offset="0.0260417" stop-color="#FFCA62"/>
<stop offset="0.536458" stop-color="#FFCA62"/>
<stop offset="1" stop-color="#FF784E" stop-opacity="0.31"/>
</linearGradient>
</defs>
</svg>
