<svg width="260" height="35" viewBox="0 0 260 35" fill="none" xmlns="http://www.w3.org/2000/svg">
<g opacity="0.703916">
<path d="M54.878 25.216C54.062 25.216 53.3 25.06 52.592 24.748C51.896 24.436 51.29 24.004 50.774 23.452L51.584 22.534C52.016 23.002 52.52 23.374 53.096 23.65C53.672 23.914 54.272 24.046 54.896 24.046C55.7 24.046 56.33 23.86 56.786 23.488C57.254 23.116 57.488 22.618 57.488 21.994C57.488 21.598 57.404 21.268 57.236 21.004C57.068 20.74 56.852 20.53 56.588 20.374C56.324 20.218 55.952 20.032 55.472 19.816L53.762 19.06C53.066 18.76 52.49 18.376 52.034 17.908C51.59 17.44 51.368 16.816 51.368 16.036C51.368 15.448 51.524 14.92 51.836 14.452C52.148 13.984 52.58 13.618 53.132 13.354C53.696 13.09 54.32 12.958 55.004 12.958C55.688 12.958 56.324 13.09 56.912 13.354C57.512 13.618 58.022 13.972 58.442 14.416L57.722 15.262C56.942 14.506 56.036 14.128 55.004 14.128C54.308 14.128 53.75 14.296 53.33 14.632C52.91 14.968 52.7 15.412 52.7 15.964C52.7 16.336 52.796 16.648 52.988 16.9C53.18 17.152 53.402 17.35 53.654 17.494C53.906 17.638 54.248 17.806 54.68 17.998L56.39 18.754C57.17 19.078 57.77 19.48 58.19 19.96C58.622 20.44 58.838 21.088 58.838 21.904C58.838 22.528 58.676 23.092 58.352 23.596C58.028 24.1 57.566 24.496 56.966 24.784C56.366 25.072 55.67 25.216 54.878 25.216ZM64.4589 25.216C63.6909 25.216 62.9949 25.036 62.3709 24.676C61.7589 24.304 61.2729 23.776 60.9129 23.092C60.5649 22.408 60.3909 21.592 60.3909 20.644C60.3909 19.708 60.5769 18.892 60.9489 18.196C61.3329 17.5 61.8429 16.972 62.4789 16.612C63.1149 16.24 63.8049 16.054 64.5489 16.054C65.4969 16.054 66.3429 16.402 67.0869 17.098L66.4029 17.962C66.1149 17.698 65.8269 17.5 65.5389 17.368C65.2509 17.224 64.9389 17.152 64.6029 17.152C64.0629 17.152 63.5769 17.302 63.1449 17.602C62.7129 17.89 62.3709 18.298 62.1189 18.826C61.8789 19.354 61.7589 19.96 61.7589 20.644C61.7589 21.688 62.0169 22.528 62.5329 23.164C63.0489 23.8 63.7269 24.118 64.5669 24.118C65.3229 24.118 66.0309 23.818 66.6909 23.218L67.2669 24.1C66.8709 24.448 66.4329 24.724 65.9529 24.928C65.4729 25.12 64.9749 25.216 64.4589 25.216ZM69.2488 16.27H70.3288L70.4368 17.872H70.4908C70.7908 17.308 71.1568 16.864 71.5888 16.54C72.0208 16.216 72.4828 16.054 72.9748 16.054C73.3228 16.054 73.6228 16.114 73.8748 16.234L73.6228 17.386C73.3108 17.29 73.0348 17.242 72.7948 17.242C72.3868 17.242 71.9788 17.41 71.5708 17.746C71.1748 18.082 70.8328 18.604 70.5448 19.312V25H69.2488V16.27ZM78.5202 25.216C77.8002 25.216 77.1342 25.036 76.5222 24.676C75.9102 24.304 75.4182 23.776 75.0462 23.092C74.6862 22.396 74.5062 21.58 74.5062 20.644C74.5062 19.708 74.6862 18.892 75.0462 18.196C75.4182 17.5 75.9102 16.972 76.5222 16.612C77.1342 16.24 77.8002 16.054 78.5202 16.054C79.2402 16.054 79.9062 16.24 80.5182 16.612C81.1302 16.972 81.6162 17.5 81.9762 18.196C82.3482 18.892 82.5342 19.708 82.5342 20.644C82.5342 21.58 82.3482 22.396 81.9762 23.092C81.6162 23.776 81.1302 24.304 80.5182 24.676C79.9062 25.036 79.2402 25.216 78.5202 25.216ZM78.5202 24.118C79.0362 24.118 79.4922 23.974 79.8882 23.686C80.2962 23.398 80.6142 22.99 80.8422 22.462C81.0702 21.934 81.1842 21.328 81.1842 20.644C81.1842 19.96 81.0702 19.354 80.8422 18.826C80.6142 18.298 80.2962 17.89 79.8882 17.602C79.4922 17.302 79.0362 17.152 78.5202 17.152C78.0042 17.152 77.5422 17.302 77.1342 17.602C76.7382 17.89 76.4262 18.298 76.1982 18.826C75.9822 19.354 75.8742 19.96 75.8742 20.644C75.8742 21.688 76.1202 22.528 76.6122 23.164C77.1042 23.8 77.7402 24.118 78.5202 24.118ZM86.3329 25.216C85.8409 25.216 85.4809 25.066 85.2529 24.766C85.0249 24.454 84.9109 23.998 84.9109 23.398V12.148H86.2069V23.506C86.2069 23.71 86.2429 23.866 86.3149 23.974C86.3989 24.07 86.5009 24.118 86.6209 24.118C86.7169 24.118 86.8249 24.106 86.9449 24.082L87.1249 25.09C86.8969 25.174 86.6329 25.216 86.3329 25.216ZM90.8329 25.216C90.3409 25.216 89.9809 25.066 89.7529 24.766C89.5249 24.454 89.4109 23.998 89.4109 23.398V12.148H90.7069V23.506C90.7069 23.71 90.7429 23.866 90.8149 23.974C90.8989 24.07 91.0009 24.118 91.1209 24.118C91.2169 24.118 91.3249 24.106 91.4449 24.082L91.6249 25.09C91.3969 25.174 91.1329 25.216 90.8329 25.216ZM100.448 25.216C99.3444 25.216 98.4684 24.814 97.8204 24.01C97.1844 23.206 96.8664 22.084 96.8664 20.644C96.8664 19.732 97.0404 18.928 97.3884 18.232C97.7364 17.536 98.1984 17.002 98.7744 16.63C99.3624 16.246 99.9924 16.054 100.664 16.054C101.132 16.054 101.552 16.138 101.924 16.306C102.296 16.474 102.704 16.732 103.148 17.08L103.094 15.568V12.148H104.39V25H103.31L103.202 23.938H103.148C102.776 24.322 102.356 24.634 101.888 24.874C101.432 25.102 100.952 25.216 100.448 25.216ZM100.736 24.1C101.156 24.1 101.552 23.998 101.924 23.794C102.308 23.59 102.698 23.278 103.094 22.858V18.124C102.71 17.788 102.338 17.548 101.978 17.404C101.618 17.248 101.246 17.17 100.862 17.17C100.37 17.17 99.9204 17.32 99.5124 17.62C99.1164 17.92 98.7984 18.334 98.5584 18.862C98.3304 19.39 98.2164 19.984 98.2164 20.644C98.2164 21.724 98.4324 22.57 98.8644 23.182C99.3084 23.794 99.9324 24.1 100.736 24.1ZM110.776 25.216C110.056 25.216 109.39 25.036 108.778 24.676C108.166 24.304 107.674 23.776 107.302 23.092C106.942 22.396 106.762 21.58 106.762 20.644C106.762 19.708 106.942 18.892 107.302 18.196C107.674 17.5 108.166 16.972 108.778 16.612C109.39 16.24 110.056 16.054 110.776 16.054C111.496 16.054 112.162 16.24 112.774 16.612C113.386 16.972 113.872 17.5 114.232 18.196C114.604 18.892 114.79 19.708 114.79 20.644C114.79 21.58 114.604 22.396 114.232 23.092C113.872 23.776 113.386 24.304 112.774 24.676C112.162 25.036 111.496 25.216 110.776 25.216ZM110.776 24.118C111.292 24.118 111.748 23.974 112.144 23.686C112.552 23.398 112.87 22.99 113.098 22.462C113.326 21.934 113.44 21.328 113.44 20.644C113.44 19.96 113.326 19.354 113.098 18.826C112.87 18.298 112.552 17.89 112.144 17.602C111.748 17.302 111.292 17.152 110.776 17.152C110.26 17.152 109.798 17.302 109.39 17.602C108.994 17.89 108.682 18.298 108.454 18.826C108.238 19.354 108.13 19.96 108.13 20.644C108.13 21.688 108.376 22.528 108.868 23.164C109.36 23.8 109.996 24.118 110.776 24.118ZM116.016 16.27H117.366L118.734 21.472L118.896 22.246C119.064 22.966 119.184 23.512 119.256 23.884H119.328C119.556 22.948 119.76 22.144 119.94 21.472L121.344 16.27H122.658L124.08 21.472L124.692 23.884H124.764L125.34 21.472L126.672 16.27H127.932L125.556 25H123.936L122.604 20.122L122.262 18.7C122.238 18.604 122.154 18.244 122.01 17.62H121.938C121.674 18.808 121.464 19.654 121.308 20.158L120.012 25H118.482L116.016 16.27ZM129.893 16.27H130.973L131.081 17.566H131.135C131.615 17.086 132.083 16.714 132.539 16.45C133.007 16.186 133.517 16.054 134.069 16.054C134.981 16.054 135.653 16.342 136.085 16.918C136.517 17.482 136.733 18.328 136.733 19.456V25H135.419V19.618C135.419 18.778 135.281 18.166 135.005 17.782C134.741 17.398 134.303 17.206 133.691 17.206C133.259 17.206 132.857 17.32 132.485 17.548C132.113 17.764 131.681 18.118 131.189 18.61V25H129.893V16.27ZM145.916 25.216C145.052 25.216 144.434 24.97 144.062 24.478C143.69 23.986 143.504 23.284 143.504 22.372V17.35H142.19V16.36L143.558 16.27L143.72 13.804H144.818V16.27H147.212V17.35H144.818V22.408C144.818 22.984 144.92 23.416 145.124 23.704C145.34 23.992 145.7 24.136 146.204 24.136C146.456 24.136 146.792 24.058 147.212 23.902L147.482 24.892C146.834 25.108 146.312 25.216 145.916 25.216ZM152.331 25.216C151.611 25.216 150.945 25.036 150.333 24.676C149.721 24.304 149.229 23.776 148.857 23.092C148.497 22.396 148.317 21.58 148.317 20.644C148.317 19.708 148.497 18.892 148.857 18.196C149.229 17.5 149.721 16.972 150.333 16.612C150.945 16.24 151.611 16.054 152.331 16.054C153.051 16.054 153.717 16.24 154.329 16.612C154.941 16.972 155.427 17.5 155.787 18.196C156.159 18.892 156.345 19.708 156.345 20.644C156.345 21.58 156.159 22.396 155.787 23.092C155.427 23.776 154.941 24.304 154.329 24.676C153.717 25.036 153.051 25.216 152.331 25.216ZM152.331 24.118C152.847 24.118 153.303 23.974 153.699 23.686C154.107 23.398 154.425 22.99 154.653 22.462C154.881 21.934 154.995 21.328 154.995 20.644C154.995 19.96 154.881 19.354 154.653 18.826C154.425 18.298 154.107 17.89 153.699 17.602C153.303 17.302 152.847 17.152 152.331 17.152C151.815 17.152 151.353 17.302 150.945 17.602C150.549 17.89 150.237 18.298 150.009 18.826C149.793 19.354 149.685 19.96 149.685 20.644C149.685 21.688 149.931 22.528 150.423 23.164C150.915 23.8 151.551 24.118 152.331 24.118ZM168.985 20.14C168.985 20.452 168.967 20.716 168.931 20.932H162.901C162.961 21.952 163.273 22.744 163.837 23.308C164.413 23.872 165.115 24.154 165.943 24.154C166.711 24.154 167.449 23.92 168.157 23.452L168.643 24.316C168.211 24.592 167.767 24.814 167.311 24.982C166.855 25.138 166.345 25.216 165.781 25.216C165.013 25.216 164.311 25.036 163.675 24.676C163.051 24.304 162.553 23.77 162.181 23.074C161.821 22.378 161.641 21.568 161.641 20.644C161.641 19.732 161.821 18.928 162.181 18.232C162.553 17.536 163.039 17.002 163.639 16.63C164.239 16.246 164.875 16.054 165.547 16.054C166.627 16.054 167.467 16.42 168.067 17.152C168.679 17.872 168.985 18.868 168.985 20.14ZM167.815 19.978C167.815 19.054 167.617 18.346 167.221 17.854C166.825 17.362 166.273 17.116 165.565 17.116C164.917 17.116 164.341 17.362 163.837 17.854C163.333 18.346 163.033 19.054 162.937 19.978H167.815ZM172.681 20.446L170.017 16.27H171.439L172.663 18.268C173.047 18.916 173.341 19.396 173.545 19.708H173.617L174.427 18.268L175.561 16.27H176.929L174.283 20.572L177.145 25H175.723L174.373 22.876C174.013 22.252 173.695 21.73 173.419 21.31H173.347C173.155 21.622 172.951 21.97 172.735 22.354L172.429 22.876L171.169 25H169.801L172.681 20.446ZM178.919 16.27H179.999L180.107 17.314H180.161C181.181 16.474 182.123 16.054 182.987 16.054C184.103 16.054 184.955 16.456 185.543 17.26C186.143 18.052 186.443 19.132 186.443 20.5C186.443 21.46 186.269 22.3 185.921 23.02C185.573 23.728 185.111 24.274 184.535 24.658C183.959 25.03 183.335 25.216 182.663 25.216C181.883 25.216 181.055 24.874 180.179 24.19L180.215 25.738V28.744H178.919V16.27ZM182.447 24.1C182.951 24.1 183.401 23.956 183.797 23.668C184.205 23.368 184.523 22.948 184.751 22.408C184.979 21.868 185.093 21.238 185.093 20.518C185.093 19.474 184.895 18.658 184.499 18.07C184.115 17.47 183.509 17.17 182.681 17.17C181.949 17.17 181.127 17.59 180.215 18.43V23.146C180.611 23.482 181.001 23.728 181.385 23.884C181.769 24.028 182.123 24.1 182.447 24.1ZM190.272 25.216C189.78 25.216 189.42 25.066 189.192 24.766C188.964 24.454 188.85 23.998 188.85 23.398V12.148H190.146V23.506C190.146 23.71 190.182 23.866 190.254 23.974C190.338 24.07 190.44 24.118 190.56 24.118C190.656 24.118 190.764 24.106 190.884 24.082L191.064 25.09C190.836 25.174 190.572 25.216 190.272 25.216ZM196.68 25.216C195.96 25.216 195.294 25.036 194.682 24.676C194.07 24.304 193.578 23.776 193.206 23.092C192.846 22.396 192.666 21.58 192.666 20.644C192.666 19.708 192.846 18.892 193.206 18.196C193.578 17.5 194.07 16.972 194.682 16.612C195.294 16.24 195.96 16.054 196.68 16.054C197.4 16.054 198.066 16.24 198.678 16.612C199.29 16.972 199.776 17.5 200.136 18.196C200.508 18.892 200.694 19.708 200.694 20.644C200.694 21.58 200.508 22.396 200.136 23.092C199.776 23.776 199.29 24.304 198.678 24.676C198.066 25.036 197.4 25.216 196.68 25.216ZM196.68 24.118C197.196 24.118 197.652 23.974 198.048 23.686C198.456 23.398 198.774 22.99 199.002 22.462C199.23 21.934 199.344 21.328 199.344 20.644C199.344 19.96 199.23 19.354 199.002 18.826C198.774 18.298 198.456 17.89 198.048 17.602C197.652 17.302 197.196 17.152 196.68 17.152C196.164 17.152 195.702 17.302 195.294 17.602C194.898 17.89 194.586 18.298 194.358 18.826C194.142 19.354 194.034 19.96 194.034 20.644C194.034 21.688 194.28 22.528 194.772 23.164C195.264 23.8 195.9 24.118 196.68 24.118ZM203.071 16.27H204.151L204.259 17.872H204.313C204.613 17.308 204.979 16.864 205.411 16.54C205.843 16.216 206.305 16.054 206.797 16.054C207.145 16.054 207.445 16.114 207.697 16.234L207.445 17.386C207.133 17.29 206.857 17.242 206.617 17.242C206.209 17.242 205.801 17.41 205.393 17.746C204.997 18.082 204.655 18.604 204.367 19.312V25H203.071V16.27ZM215.672 20.14C215.672 20.452 215.654 20.716 215.618 20.932H209.588C209.648 21.952 209.96 22.744 210.524 23.308C211.1 23.872 211.802 24.154 212.63 24.154C213.398 24.154 214.136 23.92 214.844 23.452L215.33 24.316C214.898 24.592 214.454 24.814 213.998 24.982C213.542 25.138 213.032 25.216 212.468 25.216C211.7 25.216 210.998 25.036 210.362 24.676C209.738 24.304 209.24 23.77 208.868 23.074C208.508 22.378 208.328 21.568 208.328 20.644C208.328 19.732 208.508 18.928 208.868 18.232C209.24 17.536 209.726 17.002 210.326 16.63C210.926 16.246 211.562 16.054 212.234 16.054C213.314 16.054 214.154 16.42 214.754 17.152C215.366 17.872 215.672 18.868 215.672 20.14ZM214.502 19.978C214.502 19.054 214.304 18.346 213.908 17.854C213.512 17.362 212.96 17.116 212.252 17.116C211.604 17.116 211.028 17.362 210.524 17.854C210.02 18.346 209.72 19.054 209.624 19.978H214.502ZM221.475 16.27H222.555L222.663 17.566H222.717C223.641 16.558 224.547 16.054 225.435 16.054C226.671 16.054 227.475 16.618 227.847 17.746C228.351 17.194 228.837 16.774 229.305 16.486C229.773 16.198 230.253 16.054 230.745 16.054C232.509 16.054 233.391 17.188 233.391 19.456V25H232.077V19.618C232.077 18.778 231.939 18.166 231.663 17.782C231.387 17.398 230.955 17.206 230.367 17.206C229.683 17.206 228.921 17.674 228.081 18.61V25H226.767V19.618C226.767 18.79 226.629 18.184 226.353 17.8C226.077 17.404 225.651 17.206 225.075 17.206C224.391 17.206 223.623 17.674 222.771 18.61V25H221.475V16.27ZM239.659 25.216C238.939 25.216 238.273 25.036 237.661 24.676C237.049 24.304 236.557 23.776 236.185 23.092C235.825 22.396 235.645 21.58 235.645 20.644C235.645 19.708 235.825 18.892 236.185 18.196C236.557 17.5 237.049 16.972 237.661 16.612C238.273 16.24 238.939 16.054 239.659 16.054C240.379 16.054 241.045 16.24 241.657 16.612C242.269 16.972 242.755 17.5 243.115 18.196C243.487 18.892 243.673 19.708 243.673 20.644C243.673 21.58 243.487 22.396 243.115 23.092C242.755 23.776 242.269 24.304 241.657 24.676C241.045 25.036 240.379 25.216 239.659 25.216ZM239.659 24.118C240.175 24.118 240.631 23.974 241.027 23.686C241.435 23.398 241.753 22.99 241.981 22.462C242.209 21.934 242.323 21.328 242.323 20.644C242.323 19.96 242.209 19.354 241.981 18.826C241.753 18.298 241.435 17.89 241.027 17.602C240.631 17.302 240.175 17.152 239.659 17.152C239.143 17.152 238.681 17.302 238.273 17.602C237.877 17.89 237.565 18.298 237.337 18.826C237.121 19.354 237.013 19.96 237.013 20.644C237.013 21.688 237.259 22.528 237.751 23.164C238.243 23.8 238.879 24.118 239.659 24.118ZM246.05 16.27H247.13L247.238 17.872H247.292C247.592 17.308 247.958 16.864 248.39 16.54C248.822 16.216 249.284 16.054 249.776 16.054C250.124 16.054 250.424 16.114 250.676 16.234L250.424 17.386C250.112 17.29 249.836 17.242 249.596 17.242C249.188 17.242 248.78 17.41 248.372 17.746C247.976 18.082 247.634 18.604 247.346 19.312V25H246.05V16.27ZM258.651 20.14C258.651 20.452 258.633 20.716 258.597 20.932H252.567C252.627 21.952 252.939 22.744 253.503 23.308C254.079 23.872 254.781 24.154 255.609 24.154C256.377 24.154 257.115 23.92 257.823 23.452L258.309 24.316C257.877 24.592 257.433 24.814 256.977 24.982C256.521 25.138 256.011 25.216 255.447 25.216C254.679 25.216 253.977 25.036 253.341 24.676C252.717 24.304 252.219 23.77 251.847 23.074C251.487 22.378 251.307 21.568 251.307 20.644C251.307 19.732 251.487 18.928 251.847 18.232C252.219 17.536 252.705 17.002 253.305 16.63C253.905 16.246 254.541 16.054 255.213 16.054C256.293 16.054 257.133 16.42 257.733 17.152C258.345 17.872 258.651 18.868 258.651 20.14ZM257.481 19.978C257.481 19.054 257.283 18.346 256.887 17.854C256.491 17.362 255.939 17.116 255.231 17.116C254.583 17.116 254.007 17.362 253.503 17.854C252.999 18.346 252.699 19.054 252.603 19.978H257.481Z" fill="white"/>
<path fill-rule="evenodd" clip-rule="evenodd" d="M0 17.4997C0.000629091 27.1494 7.85169 35 17.5012 35C27.1503 35 35 27.149 35 17.4997C35 7.85035 27.1492 0 17.4998 0C7.85043 0 0 7.85035 0 17.4997ZM1.6234 17.4997C1.6234 8.74582 8.74585 1.62338 17.4998 1.62338C26.2545 1.62338 33.3769 8.74577 33.3771 17.4997C33.3771 26.2539 26.2551 33.3763 17.5012 33.3763H17.5005C8.74654 33.3763 1.62408 26.2542 1.6234 17.4997Z" fill="white"/>
<path d="M17.5003 25.9677L11.5684 20.6558C11.2333 20.3559 11.1958 19.8306 11.4845 19.4824C11.7734 19.1342 12.2789 19.0955 12.6137 19.3952L17.5003 23.771L22.3864 19.3952C22.7212 19.0956 23.2272 19.1342 23.5156 19.4824C23.8041 19.8306 23.7667 20.3559 23.4317 20.6558L17.5003 25.9677Z" fill="white"/>
<path d="M18.0646 25.9678C17.4409 25.9678 16.9355 25.598 16.9355 25.1419V10.9873C16.9355 10.531 17.4409 10.1613 18.0646 10.1613C18.6882 10.1613 19.1936 10.531 19.1936 10.9873V25.1418C19.1936 25.598 18.6882 25.9678 18.0646 25.9678Z" fill="white"/>
</g>
</svg>
