<svg width="804" height="138" viewBox="0 0 804 138" fill="none" xmlns="http://www.w3.org/2000/svg">
<path d="M3.06 51V0.599998H49.54V10.75H13.28V20.69H42.47V30.91H13.28V40.85H49.54V51H3.06ZM55.8138 51V47.85L74.2938 25.8L55.8138 3.75V0.599998H66.5238L81.0138 17.82L95.4338 0.599998H106.074V3.75L87.5938 25.8L106.144 47.78V51H95.4338L80.8738 33.85L66.5238 51H55.8138ZM113.32 51V0.669997H153.57C155.437 0.669997 157.117 1.13666 158.61 2.07C160.15 2.95666 161.387 4.17 162.32 5.71C163.254 7.25 163.72 8.93 163.72 10.75V24.05C163.72 25.87 163.254 27.55 162.32 29.09C161.387 30.5833 160.15 31.7967 158.61 32.73C157.117 33.6167 155.437 34.06 153.57 34.06L123.4 34.13V51H113.32ZM123.82 23.91H153.08C153.22 23.91 153.314 23.8867 153.36 23.84C153.454 23.7467 153.5 23.6533 153.5 23.56V11.17C153.5 11.03 153.454 10.9367 153.36 10.89C153.314 10.7967 153.22 10.75 153.08 10.75H123.82C123.68 10.75 123.564 10.7967 123.47 10.89C123.424 10.9367 123.4 11.03 123.4 11.17V23.56C123.4 23.6533 123.424 23.7467 123.47 23.84C123.564 23.8867 123.68 23.91 123.82 23.91ZM168.831 51V0.599998H215.311V10.75H179.051V20.69H208.241V30.91H179.051V40.85H215.311V51H168.831ZM261.905 51L246.995 33.22H260.225L272.545 47.85V51H261.905ZM222.285 51V0.669997H262.535C264.402 0.669997 266.082 1.13666 267.575 2.07C269.115 2.95666 270.352 4.17 271.285 5.71C272.219 7.25 272.685 8.93 272.685 10.75V24.05C272.685 25.87 272.219 27.55 271.285 29.09C270.352 30.5833 269.115 31.7967 267.575 32.73C266.082 33.6167 264.402 34.06 262.535 34.06L232.365 34.13V51H222.285ZM232.785 23.91H262.045C262.185 23.91 262.279 23.8867 262.325 23.84C262.419 23.7467 262.465 23.6533 262.465 23.56V11.17C262.465 11.03 262.419 10.9367 262.325 10.89C262.279 10.7967 262.185 10.75 262.045 10.75H232.785C232.645 10.75 232.529 10.7967 232.435 10.89C232.389 10.9367 232.365 11.03 232.365 11.17V23.56C232.365 23.6533 232.389 23.7467 232.435 23.84C232.529 23.8867 232.645 23.91 232.785 23.91ZM278.649 51V0.599998H288.659V51H278.649ZM295.16 51V0.599998H341.64V10.75H305.38V20.69H334.57V30.91H305.38V40.85H341.64V51H295.16ZM348.613 51V0.599998H359.323L388.793 35.74V0.599998H399.013V51H388.303L358.693 15.72V51H348.613ZM416.936 51C415.069 51 413.366 50.5567 411.826 49.67C410.332 48.7367 409.119 47.5233 408.186 46.03C407.299 44.49 406.856 42.7867 406.856 40.92V10.68C406.856 8.81333 407.299 7.13333 408.186 5.64C409.119 4.1 410.332 2.88666 411.826 2C413.366 1.06666 415.069 0.599998 416.936 0.599998H457.116V10.75H419.316C418.569 10.75 417.986 10.96 417.566 11.38C417.146 11.7533 416.936 12.3367 416.936 13.13V38.47C416.936 39.2167 417.146 39.8 417.566 40.22C417.986 40.64 418.569 40.85 419.316 40.85H457.116V51H416.936ZM464.554 51V0.599998H511.034V10.75H474.774V20.69H503.964V30.91H474.774V40.85H511.034V51H464.554ZM20.56 137V96.75H0.4V86.6H50.8V96.75H30.71V137H20.56ZM95.6552 137L80.7452 119.22H93.9752L106.295 133.85V137H95.6552ZM56.0352 137V86.67H96.2852C98.1519 86.67 99.8319 87.1367 101.325 88.07C102.865 88.9567 104.102 90.17 105.035 91.71C105.969 93.25 106.435 94.93 106.435 96.75V110.05C106.435 111.87 105.969 113.55 105.035 115.09C104.102 116.583 102.865 117.797 101.325 118.73C99.8319 119.617 98.1519 120.06 96.2852 120.06L66.1152 120.13V137H56.0352ZM66.5352 109.91H95.7952C95.9352 109.91 96.0286 109.887 96.0752 109.84C96.1686 109.747 96.2152 109.653 96.2152 109.56V97.17C96.2152 97.03 96.1686 96.9367 96.0752 96.89C96.0286 96.7967 95.9352 96.75 95.7952 96.75H66.5352C66.3952 96.75 66.2786 96.7967 66.1852 96.89C66.1386 96.9367 66.1152 97.03 66.1152 97.17V109.56C66.1152 109.653 66.1386 109.747 66.1852 109.84C66.2786 109.887 66.3952 109.91 66.5352 109.91ZM113.939 137V96.68C113.939 94.8133 114.382 93.1333 115.269 91.64C116.202 90.1 117.416 88.8867 118.909 88C120.449 87.0667 122.152 86.6 124.019 86.6H154.189C156.056 86.6 157.736 87.0667 159.229 88C160.769 88.8867 162.006 90.1 162.939 91.64C163.872 93.1333 164.339 94.8133 164.339 96.68V137H154.119V120.41H124.019V137H113.939ZM124.019 110.33H154.119V97.17C154.119 97.03 154.072 96.9367 153.979 96.89C153.932 96.7967 153.839 96.75 153.699 96.75H124.439C124.299 96.75 124.182 96.7967 124.089 96.89C124.042 96.9367 124.019 97.03 124.019 97.17V110.33ZM172.455 137V86.6H212.705C214.571 86.6 216.251 87.0667 217.745 88C219.285 88.8867 220.521 90.1 221.455 91.64C222.388 93.1333 222.855 94.8133 222.855 96.68V126.92C222.855 128.787 222.388 130.49 221.455 132.03C220.521 133.523 219.285 134.737 217.745 135.67C216.251 136.557 214.571 137 212.705 137H172.455ZM182.885 126.85H212.215C212.355 126.85 212.448 126.827 212.495 126.78C212.588 126.687 212.635 126.57 212.635 126.43V97.17C212.635 97.03 212.588 96.9367 212.495 96.89C212.448 96.7967 212.355 96.75 212.215 96.75H182.885C182.791 96.75 182.698 96.7967 182.605 96.89C182.511 96.9367 182.465 97.03 182.465 97.17V126.43C182.465 126.57 182.511 126.687 182.605 126.78C182.698 126.827 182.791 126.85 182.885 126.85ZM230.833 137V86.6H277.313V96.75H241.053V106.69H270.243V116.91H241.053V126.85H277.313V137H230.833ZM316.027 137C314.254 137 312.621 136.557 311.127 135.67C309.634 134.783 308.421 133.593 307.487 132.1C306.601 130.607 306.157 128.95 306.157 127.13V113.83C306.157 112.803 306.461 111.753 307.067 110.68C307.721 109.56 308.607 108.72 309.727 108.16C309.074 107.18 308.747 105.803 308.747 104.03V96.61C308.747 94.7433 309.191 93.0633 310.077 91.57C311.011 90.03 312.224 88.84 313.717 88C315.211 87.1133 316.844 86.67 318.617 86.67H343.957C345.544 86.67 347.037 87.0433 348.437 87.79C349.837 88.49 351.004 89.47 351.937 90.73C352.917 91.9433 353.571 93.2967 353.897 94.79V100.67H343.887V97.1C343.887 97.0067 343.841 96.9367 343.747 96.89C343.701 96.7967 343.607 96.75 343.467 96.75H319.107C319.014 96.75 318.921 96.7967 318.827 96.89C318.734 96.9367 318.687 97.0067 318.687 97.1V105.01L345.847 118.66V111.52H355.787V122.86L364.047 127.76V137.91L354.247 132.31C353.314 133.71 352.101 134.853 350.607 135.74C349.114 136.58 347.551 137 345.917 137H316.027ZM316.517 127.06H338.777C339.244 127.06 339.711 127.037 340.177 126.99C340.644 126.897 341.111 126.78 341.577 126.64L317.707 114.6L316.657 114.18C316.471 114.18 316.331 114.39 316.237 114.81C316.144 115.183 316.097 116.023 316.097 117.33V126.64C316.097 126.733 316.144 126.827 316.237 126.92C316.331 127.013 316.424 127.06 316.517 127.06ZM404.011 137C402.191 137 400.511 136.557 398.971 135.67C397.431 134.737 396.217 133.523 395.331 132.03C394.444 130.49 394.001 128.787 394.001 126.92V122.65H404.081V126.43C404.081 126.57 404.104 126.687 404.151 126.78C404.244 126.827 404.337 126.85 404.431 126.85H433.761C433.854 126.85 433.947 126.827 434.041 126.78C434.134 126.687 434.181 126.57 434.181 126.43V117.26C434.181 117.167 434.134 117.097 434.041 117.05C433.947 116.957 433.854 116.91 433.761 116.91H404.011C402.191 116.91 400.511 116.467 398.971 115.58C397.431 114.647 396.217 113.41 395.331 111.87C394.444 110.33 394.001 108.65 394.001 106.83V96.68C394.001 94.8133 394.444 93.1333 395.331 91.64C396.217 90.1 397.431 88.8867 398.971 88C400.511 87.0667 402.191 86.6 404.011 86.6H434.321C436.141 86.6 437.797 87.0667 439.291 88C440.831 88.8867 442.067 90.1 443.001 91.64C443.934 93.1333 444.401 94.8133 444.401 96.68V100.95H434.181V97.17C434.181 97.03 434.134 96.9367 434.041 96.89C433.947 96.7967 433.854 96.75 433.761 96.75H404.431C404.337 96.75 404.244 96.7967 404.151 96.89C404.104 96.9367 404.081 97.03 404.081 97.17V106.34C404.081 106.433 404.104 106.527 404.151 106.62C404.244 106.667 404.337 106.69 404.431 106.69H434.321C436.141 106.69 437.797 107.157 439.291 108.09C440.831 108.977 442.067 110.19 443.001 111.73C443.934 113.27 444.401 114.95 444.401 116.77V126.92C444.401 128.787 443.934 130.49 443.001 132.03C442.067 133.523 440.831 134.737 439.291 135.67C437.797 136.557 436.141 137 434.321 137H404.011ZM452.111 137V86.6H462.191V106.69H493.481V86.6H503.561V137H493.481V116.91H462.191V137H452.111ZM521.522 137C519.655 137 517.952 136.557 516.412 135.67C514.919 134.737 513.705 133.523 512.772 132.03C511.885 130.49 511.442 128.787 511.442 126.92V96.68C511.442 94.8133 511.885 93.1333 512.772 91.64C513.705 90.1 514.919 88.8867 516.412 88C517.952 87.0667 519.655 86.6 521.522 86.6H551.762C553.582 86.6 555.239 87.0667 556.732 88C558.272 88.8867 559.509 90.1 560.442 91.64C561.375 93.1333 561.842 94.8133 561.842 96.68V126.92C561.842 128.787 561.375 130.49 560.442 132.03C559.509 133.523 558.272 134.737 556.732 135.67C555.239 136.557 553.582 137 551.762 137H521.522ZM521.942 126.85H551.202C551.342 126.85 551.435 126.827 551.482 126.78C551.575 126.687 551.622 126.57 551.622 126.43V97.17C551.622 97.03 551.575 96.9367 551.482 96.89C551.435 96.7967 551.342 96.75 551.202 96.75H521.942C521.802 96.75 521.685 96.7967 521.592 96.89C521.545 96.9367 521.522 97.03 521.522 97.17V126.43C521.522 126.57 521.545 126.687 521.592 126.78C521.685 126.827 521.802 126.85 521.942 126.85ZM569.551 137V86.67H609.801C611.668 86.67 613.348 87.1367 614.841 88.07C616.381 88.9567 617.618 90.17 618.551 91.71C619.484 93.25 619.951 94.93 619.951 96.75V110.05C619.951 111.87 619.484 113.55 618.551 115.09C617.618 116.583 616.381 117.797 614.841 118.73C613.348 119.617 611.668 120.06 609.801 120.06L579.631 120.13V137H569.551ZM580.051 109.91H609.311C609.451 109.91 609.544 109.887 609.591 109.84C609.684 109.747 609.731 109.653 609.731 109.56V97.17C609.731 97.03 609.684 96.9367 609.591 96.89C609.544 96.7967 609.451 96.75 609.311 96.75H580.051C579.911 96.75 579.794 96.7967 579.701 96.89C579.654 96.9367 579.631 97.03 579.631 97.17V109.56C579.631 109.653 579.654 109.747 579.701 109.84C579.794 109.887 579.911 109.91 580.051 109.91ZM624.922 137V86.67H665.172C667.039 86.67 668.719 87.1367 670.212 88.07C671.752 88.9567 672.989 90.17 673.922 91.71C674.855 93.25 675.322 94.93 675.322 96.75V110.05C675.322 111.87 674.855 113.55 673.922 115.09C672.989 116.583 671.752 117.797 670.212 118.73C668.719 119.617 667.039 120.06 665.172 120.06L635.002 120.13V137H624.922ZM635.422 109.91H664.682C664.822 109.91 664.915 109.887 664.962 109.84C665.055 109.747 665.102 109.653 665.102 109.56V97.17C665.102 97.03 665.055 96.9367 664.962 96.89C664.915 96.7967 664.822 96.75 664.682 96.75H635.422C635.282 96.75 635.165 96.7967 635.072 96.89C635.025 96.9367 635.002 97.03 635.002 97.17V109.56C635.002 109.653 635.025 109.747 635.072 109.84C635.165 109.887 635.282 109.91 635.422 109.91ZM678.893 137V86.6H688.903V137H678.893ZM695.264 137V86.6H705.974L735.444 121.74V86.6H745.664V137H734.954L705.344 101.72V137H695.264ZM763.586 137C761.719 137 760.016 136.557 758.476 135.67C756.983 134.737 755.769 133.523 754.836 132.03C753.949 130.49 753.506 128.787 753.506 126.92V96.68C753.506 94.8133 753.949 93.1333 754.836 91.64C755.769 90.1 756.983 88.8867 758.476 88C760.016 87.0667 761.719 86.6 763.586 86.6H793.756C795.623 86.6 797.303 87.0667 798.796 88C800.336 88.8867 801.573 90.1 802.506 91.64C803.439 93.1333 803.906 94.8133 803.906 96.68V101.02H793.686V97.17C793.686 97.03 793.639 96.9367 793.546 96.89C793.499 96.7967 793.406 96.75 793.266 96.75H764.006C763.866 96.75 763.749 96.7967 763.656 96.89C763.609 96.9367 763.586 97.03 763.586 97.17V126.43C763.586 126.57 763.609 126.687 763.656 126.78C763.749 126.827 763.866 126.85 764.006 126.85H793.266C793.406 126.85 793.499 126.827 793.546 126.78C793.639 126.687 793.686 126.57 793.686 126.43V118.17H782.556V108.02H803.906V126.92C803.906 128.787 803.439 130.49 802.506 132.03C801.573 133.523 800.336 134.737 798.796 135.67C797.303 136.557 795.623 137 793.756 137H763.586Z" fill="url(#paint0_linear_208_16892)"/>
<defs>
<linearGradient id="paint0_linear_208_16892" x1="403.962" y1="-31" x2="403.962" y2="181" gradientUnits="userSpaceOnUse">
<stop offset="0.0260417" stop-color="#FFCA62"/>
<stop offset="0.322558" stop-color="#FFCA62"/>
<stop offset="1" stop-color="#FF784E"/>
</linearGradient>
</defs>

</svg>
