<svg width="578" height="70" viewBox="0 0 578 70" fill="none" xmlns="http://www.w3.org/2000/svg">
<path d="M0.802375 70V0.879997H64.5464V14.8H14.8184V28.432H54.8504V42.448H14.8184V56.08H64.5464V70H0.802375ZM72.1904 70V0.879997H85.9184V70H72.1904ZM95.5814 70V0.879997H109.501V28.432H124.381L147.421 0.879997H162.205V5.296L136.861 35.44L162.205 65.584V70H147.421L124.381 42.448H109.501V70H95.5814ZM185.617 70C183.057 70 180.721 69.392 178.609 68.176C176.561 66.896 174.897 65.232 173.617 63.184C172.401 61.072 171.793 58.736 171.793 56.176V14.704C171.793 12.144 172.401 9.84 173.617 7.792C174.897 5.68 176.561 4.016 178.609 2.8C180.721 1.52 183.057 0.879997 185.617 0.879997H227.089C229.585 0.879997 231.857 1.52 233.905 2.8C236.017 4.016 237.713 5.68 238.993 7.792C240.273 9.84 240.913 12.144 240.913 14.704V56.176C240.913 58.736 240.273 61.072 238.993 63.184C237.713 65.232 236.017 66.896 233.905 68.176C231.857 69.392 229.585 70 227.089 70H185.617ZM186.193 56.08H226.321C226.513 56.08 226.641 56.048 226.705 55.984C226.833 55.856 226.897 55.696 226.897 55.504V15.376C226.897 15.184 226.833 15.056 226.705 14.992C226.641 14.864 226.513 14.8 226.321 14.8H186.193C186.001 14.8 185.841 14.864 185.713 14.992C185.649 15.056 185.617 15.184 185.617 15.376V55.504C185.617 55.696 185.649 55.856 185.713 55.984C185.841 56.048 186.001 56.08 186.193 56.08ZM251.485 70V0.879997H266.173L306.589 49.072V0.879997H320.605V70H305.917L265.309 21.616V70H251.485ZM329.44 70V0.879997H343.168V70H329.44ZM352.831 70V0.879997H366.751V28.432H381.631L404.671 0.879997H419.455V5.296L394.111 35.44L419.455 65.584V70H404.671L381.631 42.448H366.751V70H352.831ZM442.867 70C440.307 70 437.971 69.392 435.859 68.176C433.811 66.896 432.147 65.232 430.867 63.184C429.651 61.072 429.043 58.736 429.043 56.176V14.704C429.043 12.144 429.651 9.84 430.867 7.792C432.147 5.68 433.811 4.016 435.859 2.8C437.971 1.52 440.307 0.879997 442.867 0.879997H484.339C486.835 0.879997 489.107 1.52 491.155 2.8C493.267 4.016 494.963 5.68 496.243 7.792C497.523 9.84 498.163 12.144 498.163 14.704V56.176C498.163 58.736 497.523 61.072 496.243 63.184C494.963 65.232 493.267 66.896 491.155 68.176C489.107 69.392 486.835 70 484.339 70H442.867ZM443.443 56.08H483.571C483.763 56.08 483.891 56.048 483.955 55.984C484.083 55.856 484.147 55.696 484.147 55.504V15.376C484.147 15.184 484.083 15.056 483.955 14.992C483.891 14.864 483.763 14.8 483.571 14.8H443.443C443.251 14.8 443.091 14.864 442.963 14.992C442.899 15.056 442.867 15.184 442.867 15.376V55.504C442.867 55.696 442.899 55.856 442.963 55.984C443.091 56.048 443.251 56.08 443.443 56.08ZM522.271 70C519.775 70 517.471 69.392 515.359 68.176C513.247 66.896 511.583 65.232 510.367 63.184C509.151 61.072 508.543 58.736 508.543 56.176V50.32H522.367V55.504C522.367 55.696 522.399 55.856 522.463 55.984C522.591 56.048 522.719 56.08 522.847 56.08H563.071C563.199 56.08 563.327 56.048 563.455 55.984C563.583 55.856 563.647 55.696 563.647 55.504V42.928C563.647 42.8 563.583 42.704 563.455 42.64C563.327 42.512 563.199 42.448 563.071 42.448H522.271C519.775 42.448 517.471 41.84 515.359 40.624C513.247 39.344 511.583 37.648 510.367 35.536C509.151 33.424 508.543 31.12 508.543 28.624V14.704C508.543 12.144 509.151 9.84 510.367 7.792C511.583 5.68 513.247 4.016 515.359 2.8C517.471 1.52 519.775 0.879997 522.271 0.879997H563.839C566.335 0.879997 568.607 1.52 570.655 2.8C572.767 4.016 574.463 5.68 575.743 7.792C577.023 9.84 577.663 12.144 577.663 14.704V20.56H563.647V15.376C563.647 15.184 563.583 15.056 563.455 14.992C563.327 14.864 563.199 14.8 563.071 14.8H522.847C522.719 14.8 522.591 14.864 522.463 14.992C522.399 15.056 522.367 15.184 522.367 15.376V27.952C522.367 28.08 522.399 28.208 522.463 28.336C522.591 28.4 522.719 28.432 522.847 28.432H563.839C566.335 28.432 568.607 29.072 570.655 30.352C572.767 31.568 574.463 33.232 575.743 35.344C577.023 37.456 577.663 39.76 577.663 42.256V56.176C577.663 58.736 577.023 61.072 575.743 63.184C574.463 65.232 572.767 66.896 570.655 68.176C568.607 69.392 566.335 70 563.839 70H522.271Z" fill="url(#paint0_linear_212_23048)"/>
<defs>
<linearGradient id="paint0_linear_212_23048" x1="289.336" y1="-16" x2="289.336" y2="90" gradientUnits="userSpaceOnUse">
<stop offset="0.0260417" stop-color="#FFCA62"/>
<stop offset="0.536458" stop-color="#FFCA62"/>
<stop offset="1" stop-color="#FF784E" stop-opacity="0.31"/>
</linearGradient>
</defs>
</svg>
